<?xml version="1.0" encoding="UTF-8"?>
<svg version="1.1" xmlns="http://www.w3.org/2000/svg" width="512" height="512">
<path d="M0 0 C168.96 0 337.92 0 512 0 C512 168.96 512 337.92 512 512 C343.04 512 174.08 512 0 512 C0 343.04 0 174.08 0 0 Z " fill="transparent" transform="translate(0,0)"/>
<path d="M0 0 C8.65331178 5.59899422 15.55560793 13.23785739 22.7487793 20.546875 C24.32719272 22.13531097 25.90658152 23.72277824 27.4868927 25.30932617 C31.62380854 29.46706168 35.74899296 33.63623467 39.87127686 37.80847168 C46.47492234 44.48770886 53.09748625 51.14820249 59.71801186 57.81069946 C62.01653149 60.12678522 64.31069865 62.4471081 66.60404968 64.76831055 C68.02357406 66.20106531 69.44315236 67.63376666 70.86279297 69.06640625 C71.49000244 69.70349518 72.11721191 70.34058411 72.76342773 70.99697876 C75.79811742 74.05391895 78.88351326 76.98774061 82.14546204 79.80200195 C86.46625078 83.53506478 90.49254274 87.51980831 94.5144043 91.5703125 C95.30251495 92.35988342 96.09062561 93.14945435 96.90261841 93.96295166 C98.60059823 95.66471465 100.29742264 97.36763113 101.99319458 99.07159424 C104.68202823 101.77327771 107.37404869 104.47174953 110.06689453 107.16943359 C116.26738715 113.3822788 122.46319973 119.59978021 128.6587677 125.8175354 C134.79649253 131.97712654 140.93622896 138.13469478 147.07937622 144.28887939 C149.722466 146.93841859 152.36250881 149.59096795 155.00244141 152.24365234 C156.63388388 153.87872973 158.26546826 155.51366555 159.8972168 157.1484375 C160.62264679 157.87903381 161.34807678 158.60963013 162.0954895 159.36236572 C166.10807447 163.375361 170.2192369 167.20805921 174.52474976 170.90583801 C184.53126595 179.55801852 192.11712886 191.9895999 193.20581055 205.359375 C193.31022461 206.55046875 193.41463867 207.7415625 193.5222168 208.96875 C194.27844366 221.92874808 190.78371124 234.45878428 182.1081543 244.40625 C181.48038086 245.05078125 180.85260742 245.6953125 180.20581055 246.359375 C179.52647461 247.06578125 178.84713867 247.7721875 178.1472168 248.5 C172.76709859 253.67872341 167.15743357 256.72586137 160.20581055 259.359375 C159.09206055 259.7925 157.97831055 260.225625 156.83081055 260.671875 C143.55215204 263.19024127 130.96692554 260.46322901 119.6081543 253.19140625 C115.92816316 250.38503902 112.77529566 247.14782897 109.58081055 243.80859375 C107.4917453 241.65424521 105.36129893 239.68080747 103.08081055 237.734375 C99.60550365 234.76152211 96.40924224 231.58157366 93.2019043 228.32421875 C91.28473878 226.43706756 89.31005733 224.67252125 87.26831055 222.921875 C83.45756992 219.64806847 79.9550289 216.12573529 76.4284668 212.55078125 C73.77879615 209.93836432 70.99408252 207.52634879 68.1706543 205.10546875 C65.38881907 202.63334082 62.81205103 199.97506953 60.2019043 197.32421875 C58.28473878 195.43706756 56.31005733 193.67252125 54.26831055 191.921875 C50.46456331 188.65407649 46.96788066 185.13891321 43.44799805 181.5703125 C40.71328214 178.8737111 37.85507128 176.3568934 34.93237305 173.8671875 C33.28231605 172.4261875 31.74661374 170.9153106 30.20581055 169.359375 C30.20445402 169.95439721 30.20309749 170.54941942 30.20169985 171.16247261 C30.12101518 206.44378405 30.0300464 241.72505443 29.92575894 277.0063042 C29.91324036 281.24443695 29.90080754 285.48256996 29.88842773 289.72070312 C29.88596174 290.564424 29.88349575 291.40814488 29.88095503 292.27743305 C29.84125273 305.93120379 29.8084942 319.58498278 29.77831073 333.2387775 C29.747175 347.25326434 29.70855653 361.26771622 29.66302049 375.28216374 C29.63516698 383.92684678 29.61312036 392.5715043 29.59854804 401.2162201 C29.58798986 407.14764636 29.57015042 413.07902317 29.54664351 419.01041214 C29.53330317 422.43031491 29.5231174 425.85014848 29.52159691 429.27007866 C29.51826565 432.98450019 29.50276423 436.69868276 29.48428345 440.41305542 C29.48621818 441.48506537 29.48815292 442.55707533 29.49014628 443.66157043 C29.36321447 460.76114842 23.76564432 474.81210329 12.20581055 487.359375 C6.00625102 493.40297077 -0.71012187 497.34071327 -8.79418945 500.359375 C-10.05295898 500.83890625 -10.05295898 500.83890625 -11.3371582 501.328125 C-26.39103413 506.24739459 -41.65912125 503.64806608 -55.54418945 496.609375 C-69.77494102 488.29779111 -79.28894693 475.16794922 -83.79418945 459.359375 C-84.93225487 453.15975209 -84.94671405 447.06510798 -84.95240784 440.77381897 C-84.95734581 439.61219268 -84.96228379 438.45056639 -84.9673714 437.2537393 C-84.98004242 434.04290743 -84.98835263 430.83209885 -84.99479806 427.62124956 C-85.00282964 424.15370672 -85.01651785 420.6861856 -85.0295105 417.21865845 C-85.05123425 411.21538539 -85.06939366 405.2121101 -85.08511543 399.20881844 C-85.1078515 390.52912313 -85.13598909 381.84945191 -85.16543471 373.16977709 C-85.21306487 359.08674681 -85.25634142 345.00370666 -85.296875 330.9206543 C-85.33625323 317.24226107 -85.37768502 303.56387661 -85.421875 289.88549805 C-85.42459927 289.04201736 -85.42732354 288.19853668 -85.43013037 287.32949597 C-85.44381023 283.09789814 -85.45753043 278.86630044 -85.47127068 274.6347028 C-85.58516355 239.54294503 -85.69198876 204.4511687 -85.79418945 169.359375 C-86.46820801 170.03919434 -87.14222656 170.71901367 -87.83666992 171.41943359 C-89.1730249 172.76255615 -89.1730249 172.76255615 -90.53637695 174.1328125 C-91.41664551 175.01888184 -92.29691406 175.90495117 -93.20385742 176.81787109 C-95.99458014 179.55598829 -98.8954735 182.10866617 -101.86450195 184.6484375 C-104.63526527 187.10510619 -107.19711846 189.75297477 -109.79418945 192.390625 C-112.35724174 194.91362959 -115.06764769 197.23500317 -117.79418945 199.578125 C-119.87756023 201.4336271 -121.83700152 203.37160601 -123.79418945 205.359375 C-126.3540908 207.95919683 -128.96198485 210.42205898 -131.73168945 212.796875 C-134.72220661 215.36602771 -137.5253563 218.05254756 -140.29418945 220.859375 C-143.67660344 224.2882029 -147.17489388 227.47986018 -150.8293457 230.61328125 C-152.90239269 232.45553175 -154.84854747 234.38339162 -156.79418945 236.359375 C-160.00605108 239.6151488 -163.32584333 242.67021685 -166.8059082 245.63671875 C-168.12946368 246.78345346 -169.42462601 247.96381417 -170.6887207 249.17578125 C-175.84491583 254.03793673 -181.2072789 256.80831736 -187.79418945 259.359375 C-188.90793945 259.7925 -190.02168945 260.225625 -191.16918945 260.671875 C-203.13354951 262.94097777 -215.06859883 261.49185943 -225.54418945 255.171875 C-237.52494595 246.93187269 -245.82967246 235.77770763 -248.79418945 221.359375 C-250.03694154 205.57642353 -247.38269684 191.62885207 -237.8371582 178.7109375 C-234.85277644 175.26153373 -231.66252868 172.23758195 -228.20507812 169.27197266 C-223.58564615 165.23612125 -219.25653334 160.94794379 -214.93481445 156.59765625 C-214.08818237 155.7495639 -213.24155029 154.90147156 -212.3692627 154.02767944 C-210.07000024 151.72364922 -207.7729478 149.41744231 -205.47673035 147.11037827 C-203.05896129 144.68254623 -200.63788196 142.25802029 -198.21704102 139.83325195 C-192.07310462 133.67826843 -185.93341987 127.51905193 -179.79418945 121.359375 C-173.16374394 114.706847 -166.53254596 108.05507926 -159.89643478 101.40820217 C-157.49364635 99.00127325 -155.09193563 96.59328937 -152.69274902 94.18276978 C-150.01527985 91.49328097 -147.33473658 88.80689035 -144.65356445 86.12109375 C-143.87203003 85.33439301 -143.09049561 84.54769226 -142.28527832 83.7371521 C-138.21353728 79.66502311 -134.04810838 75.78898972 -129.68628311 72.03051567 C-126.63710742 69.33741352 -123.80090012 66.4486993 -120.95776367 63.54125977 C-119.64908399 62.21293086 -118.34039842 60.88460776 -117.03170776 59.55628967 C-116.35072903 58.86308184 -115.66975029 58.169874 -114.96813583 57.45565987 C-111.30775416 53.73375582 -107.63147647 50.02758111 -103.95825195 46.31835938 C-99.30931059 41.62164744 -94.66500043 36.92060209 -90.03637695 32.20385742 C-86.27326268 28.36993653 -82.49518501 24.55131863 -78.70715714 20.74201775 C-77.27855612 19.29995433 -75.85534055 17.85253239 -74.43801498 16.39938545 C-54.21762408 -4.31784839 -27.45582284 -16.09722116 0 0 Z " fill="#ffffff" transform="translate(283.794189453125,7.640625)"/>
</svg>
