<?xml version="1.0" encoding="UTF-8"?>
<svg version="1.1" xmlns="http://www.w3.org/2000/svg" width="512" height="512">
<path d="M0 0 C0.73605469 0.62519531 1.47210938 1.25039062 2.23046875 1.89453125 C3.82698297 3.25523299 5.41478712 4.62614884 7 6 C7.82177734 5.21689453 7.82177734 5.21689453 8.66015625 4.41796875 C37.39678317 -22.26270437 73.29495612 -36.42175824 112 -41 C112.7830249 -41.0942627 113.5660498 -41.18852539 114.37280273 -41.28564453 C123.0841846 -42.20854086 131.81225971 -42.24345266 140.5625 -42.25 C141.37713715 -42.25067474 142.19177429 -42.25134949 143.03109741 -42.25204468 C166.55231193 -42.22128522 195.599352 -41.84223811 217 -31 C220.29362442 -26.96265394 220.11941492 -23.28119772 220.06640625 -18.2734375 C220.05202515 -16.51265869 220.05202515 -16.51265869 220.03735352 -14.71630859 C220.02502686 -13.81992676 220.0127002 -12.92354492 220 -12 C220.99330322 -12.01571045 221.98660645 -12.0314209 223.01000977 -12.04760742 C226.72053818 -12.10220199 230.43103158 -12.13645656 234.1418457 -12.16479492 C235.74314356 -12.17981466 237.34440075 -12.20023663 238.94555664 -12.22631836 C241.25677571 -12.26300438 243.56744756 -12.27979435 245.87890625 -12.29296875 C246.58648575 -12.30845261 247.29406525 -12.32393646 248.02308655 -12.33988953 C253.15763496 -12.34160004 256.5462459 -11.38470646 261 -9 C263.25037616 -5.62443576 263.25162647 -4.50433433 263.25726891 -0.55356026 C263.2637178 0.58491635 263.27016669 1.72339296 263.276811 2.89636886 C263.2737138 4.15266888 263.2706166 5.4089689 263.26742554 6.70333862 C263.27116027 8.04705185 263.27576108 9.3907629 263.28115618 10.73447049 C263.29342355 14.43497723 263.29312134 18.13539383 263.29076743 21.83591628 C263.29036021 25.82374077 263.30138937 29.81153599 263.31088257 33.79934692 C263.32751395 41.61522944 263.33299308 49.4310818 263.33410732 57.24698053 C263.33505678 63.59841585 263.33916192 69.94984119 263.34550858 76.30127335 C263.36312674 94.29825991 263.37234654 112.29522259 263.37084763 130.29221784 C263.37072776 131.74834393 263.37072776 131.74834393 263.37060547 133.23388672 C263.37052371 134.20581908 263.37044195 135.17775144 263.37035771 136.17913629 C263.36954462 151.93453378 263.3886865 167.68983571 263.4168822 183.44520555 C263.44558725 199.61241892 263.45942381 215.77958564 263.45769465 231.94682515 C263.45702993 241.02764934 263.46255807 250.10837337 263.48405075 259.18917465 C263.50223129 266.92028915 263.50663572 274.65125806 263.4930319 282.38238464 C263.48648638 286.32834607 263.48644171 290.27402796 263.5037384 294.21996307 C263.51940486 297.8310687 263.51667217 301.44167166 263.49917014 305.05276455 C263.49462285 306.98057265 263.50980794 308.90839595 263.52564943 310.83614433 C263.51645184 311.97983643 263.50725425 313.12352854 263.49777794 314.30187798 C263.49843004 315.78205668 263.49843004 315.78205668 263.49909532 317.29213798 C262.85813799 320.7696781 261.40920171 322.46138198 259 325 C255.77364161 326.6131792 252.50056843 326.4275444 249 326 C246.19856266 325.01248435 243.66918479 323.60216986 241.0625 322.1875 C174.15520582 288.42343363 87.38221771 285.85570155 15.7890625 304.30078125 C6.17594449 306.07474839 -2.31365696 304.31812561 -11.75 302.1875 C-29.78846131 298.31726552 -47.52983415 295.95362038 -65.9375 294.8125 C-66.97082458 294.74790588 -66.97082458 294.74790588 -68.02502441 294.68200684 C-97.1638269 292.90731078 -126.28551918 294.80490361 -155 300 C-156.06009277 300.19013672 -157.12018555 300.38027344 -158.21240234 300.57617188 C-172.69493123 303.26751768 -186.65588507 307.26646759 -200.625 311.875 C-201.36805389 312.11758545 -202.11110779 312.3601709 -202.87667847 312.61010742 C-212.00048855 315.61052022 -220.69831686 319.0151041 -229.22451782 323.46676636 C-233.65208466 325.69522638 -236.92934621 326.49050782 -242 326 C-245.5386994 324.34860695 -246.81070153 323.28394771 -249 320 C-249.25415033 317.54283631 -249.25415033 317.54283631 -249.26006222 314.55356026 C-249.26712781 313.41508365 -249.2741934 312.27660704 -249.2814731 311.10363114 C-249.27905802 309.84733112 -249.27664293 308.5910311 -249.27415466 307.29666138 C-249.27860515 305.95294771 -249.28391857 304.60923668 -249.29002339 303.26552951 C-249.30423653 299.56502743 -249.30586606 295.8646092 -249.30542648 292.16408372 C-249.30707176 288.17625574 -249.32013279 284.1884626 -249.33161926 280.20065308 C-249.3544901 271.47763322 -249.36239198 262.75463766 -249.36744571 254.03159189 C-249.37070004 248.58729978 -249.37722088 243.14301476 -249.3844471 237.69872665 C-249.40401505 222.63158711 -249.42041835 207.56445417 -249.42332363 192.4973011 C-249.4235112 191.53272301 -249.42369877 190.56814491 -249.42389202 189.57433718 C-249.42425828 187.61881884 -249.42462198 185.6633005 -249.42498314 183.70778216 C-249.42516595 182.73703143 -249.42534876 181.7662807 -249.42553711 180.76611328 C-249.42580793 179.30821474 -249.42580793 179.30821474 -249.42608423 177.82086371 C-249.42962729 162.06544598 -249.45665702 146.3101648 -249.494035 130.55479445 C-249.53208385 114.38758057 -249.55148085 98.22043452 -249.55178314 82.05317485 C-249.55236846 72.97232343 -249.56090795 63.89163493 -249.58978081 54.81082535 C-249.6142489 47.07969064 -249.62160861 39.34877828 -249.60653328 31.61761536 C-249.59934572 27.67159313 -249.60030044 23.72601036 -249.62294388 19.78003693 C-249.64346812 16.16884038 -249.64099627 12.55842294 -249.62006903 8.94723545 C-249.61489745 7.0194145 -249.63440395 5.09157639 -249.65473074 3.16385567 C-249.56347631 -6.16408465 -249.56347631 -6.16408465 -246.57553196 -9.25943184 C-241.88589965 -12.42872844 -237.7114452 -12.13719816 -232.171875 -12.09765625 C-231.42286926 -12.0962413 -230.67386353 -12.09482635 -229.90216064 -12.09336853 C-227.51806588 -12.08778659 -225.13406622 -12.07523745 -222.75 -12.0625 C-221.13020969 -12.05748266 -219.51041791 -12.05292016 -217.890625 -12.04882812 C-213.92704688 -12.03782308 -209.96353955 -12.02057091 -206 -12 C-206.04640625 -13.02480469 -206.0928125 -14.04960938 -206.140625 -15.10546875 C-206.17816011 -16.46611656 -206.21455841 -17.82679605 -206.25 -19.1875 C-206.30027344 -20.19780273 -206.30027344 -20.19780273 -206.3515625 -21.22851562 C-206.42311771 -24.89571993 -206.11666878 -26.82021065 -204.1015625 -29.92553711 C-200.56343717 -33.41803838 -196.76506155 -33.92800146 -192 -35 C-191.33468262 -35.1532373 -190.66936523 -35.30647461 -189.98388672 -35.46435547 C-125.38474939 -50.1167378 -51.88115733 -44.57873584 0 0 Z M-185 -15 C-185 71.13 -185 157.26 -185 246 C-177.41 245.34 -169.82 244.68 -162 244 C-156.34935066 243.71284813 -150.71600842 243.4539432 -145.0625 243.3125 C-144.34564026 243.29320435 -143.62878052 243.27390869 -142.89019775 243.25402832 C-97.11841507 242.06240253 -50.03500338 247.88022924 -9.54150391 270.56201172 C-6.46159973 272.41214314 -6.46159973 272.41214314 -3 273 C-2.83077316 241.88226377 -2.72831718 210.76517246 -2.71833299 179.64701079 C-2.71709417 175.96853098 -2.71528944 172.29005165 -2.71313477 168.61157227 C-2.71271534 167.87929107 -2.71229592 167.14700987 -2.71186379 166.39253833 C-2.70373559 154.55435694 -2.64982304 142.71680817 -2.57881906 130.87885598 C-2.50692094 118.72084485 -2.48462118 106.56346241 -2.50781661 94.4052574 C-2.52056953 86.90981161 -2.49520474 79.41652521 -2.42018137 71.92143562 C-2.36668962 66.16210287 -2.38240022 60.40451514 -2.4231987 54.64515495 C-2.42921835 52.29139225 -2.41320851 49.93744867 -2.37295341 47.58402252 C-1.86565321 33.13296124 -1.86565321 33.13296124 -8.5422371 20.90337151 C-11.22718639 18.36313591 -14.01028491 16.17980617 -17 14 C-18.25005845 12.98715045 -18.25005845 12.98715045 -19.5253706 11.9538393 C-21.41822498 10.42130069 -23.35314941 9.0439154 -25.375 7.6875 C-26.08994629 7.19805908 -26.80489258 6.70861816 -27.54150391 6.2043457 C-74.5783668 -25.43608219 -131.26053402 -23.95657766 -185 -15 Z M27 18 C25.17375365 19.55890611 23.33094934 21.09285963 21.47265625 22.61328125 C20.74369141 23.29970703 20.74369141 23.29970703 20 24 C19.48206721 24.48684391 18.96413443 24.97368782 18.43050671 25.47528458 C16.18823978 29.43268363 16.59773383 33.30999696 16.63923645 37.78216553 C16.63667318 38.78605356 16.6341099 39.78994158 16.63146895 40.82425046 C16.62651624 44.19777419 16.64304885 47.57085324 16.65942383 50.94433594 C16.66026978 53.35868825 16.65979559 55.77304133 16.65809631 58.18739319 C16.65741252 63.39027987 16.66593745 68.59306546 16.68280983 73.79592133 C16.70718857 81.3183708 16.71500394 88.8407657 16.7187738 96.3632504 C16.72534006 108.56788146 16.74530594 120.77245238 16.77368164 132.97705078 C16.8012177 144.83284199 16.8224535 156.68861686 16.83520508 168.54443359 C16.83599325 169.27519662 16.83678142 170.00595964 16.83759347 170.758867 C16.84150858 174.42488181 16.8452997 178.09089674 16.84902918 181.75691175 C16.88013052 212.17131756 16.93319402 242.58565044 17 273 C20.52433639 271.6099383 23.90564114 270.09717259 27.2890625 268.390625 C39.96147758 262.08562534 52.29911368 256.58792314 66 253 C66.82918945 252.77763672 67.65837891 252.55527344 68.51269531 252.32617188 C81.54525836 248.87507446 94.62211378 246.61100095 108 245 C109.1144751 244.8618689 109.1144751 244.8618689 110.25146484 244.72094727 C115.86829428 244.05474224 121.47559525 243.69224213 127.125 243.4375 C128.04877441 243.3957666 128.97254883 243.3540332 129.92431641 243.31103516 C141.30990008 242.82633177 152.61730973 242.9304689 164 243.375 C165.2691626 243.42116455 165.2691626 243.42116455 166.56396484 243.46826172 C177.4190942 243.94382728 188.1489846 245.05643344 199 246 C199 160.2 199 74.4 199 -14 C194.7495569 -15.41681437 191.36119324 -16.38581688 187.03515625 -17.03515625 C185.91318848 -17.2043457 184.7912207 -17.37353516 183.63525391 -17.54785156 C181.86674072 -17.80260254 181.86674072 -17.80260254 180.0625 -18.0625 C178.84481934 -18.2387793 177.62713867 -18.41505859 176.37255859 -18.59667969 C167.90390797 -19.7927593 159.55801165 -20.79236892 151 -21 C150.23623047 -21.02046387 149.47246094 -21.04092773 148.68554688 -21.06201172 C105.5016337 -22.07701823 59.09341673 -12.84994486 27 18 Z M-229 9 C-229 104.7 -229 200.4 -229 299 C-220.99810733 296.61270357 -220.99810733 296.61270357 -213.1015625 293.984375 C-166.13279562 277.72274254 -119.15685363 271.63372853 -69.625 273.5 C-68.29167502 273.54840775 -66.95834168 273.59658574 -65.625 273.64453125 C-62.41657764 273.76077844 -59.20825728 273.8792971 -56 274 C-76.67136208 262.97856672 -107.29644604 262.79738075 -130.125 262.8125 C-131.41817139 262.81330566 -132.71134277 262.81411133 -134.04370117 262.81494141 C-151.64995108 262.89401079 -169.12400054 264.43237717 -186.58203125 266.62109375 C-198.69104068 267.96346394 -198.69104068 267.96346394 -203 266 C-205.4341779 260.66449987 -205.29005494 255.49137704 -205.2784729 249.74954224 C-205.2842653 248.71944404 -205.2900577 247.68934585 -205.29602563 246.62803257 C-205.31302473 243.17793396 -205.3159021 239.72796913 -205.31884766 236.27783203 C-205.32814588 233.80406873 -205.33831439 231.33030856 -205.34928894 228.85655212 C-205.37095416 223.53151433 -205.38656591 218.20651153 -205.39665604 212.88144302 C-205.41125505 205.18234215 -205.43679528 197.48330799 -205.46498732 189.78424631 C-205.51043312 177.2923798 -205.54705707 164.80050368 -205.578125 152.30859375 C-205.6083196 140.17543856 -205.64267406 128.04230687 -205.68261719 115.90917969 C-205.68507874 115.16102014 -205.68754028 114.41286059 -205.69007643 113.64202954 C-205.7024512 109.88865123 -205.7149077 106.1352732 -205.72740483 102.3818953 C-205.83093951 71.2546282 -205.919609 40.12733587 -206 9 C-213.59 9 -221.18 9 -229 9 Z M220 9 C219.98786972 13.72228912 219.98786972 13.72228912 219.97549438 18.53997803 C219.90045367 47.39524487 219.81557867 76.25046537 219.71994839 105.10567079 C219.7074292 108.88587664 219.69499647 112.66608276 219.68261719 116.44628906 C219.68015119 117.19887474 219.6776852 117.95146042 219.67514448 118.72685173 C219.63539754 130.92000625 219.60265877 143.11317006 219.57250018 155.30635163 C219.54140971 167.81337616 219.50281065 180.32036119 219.45720994 192.82734132 C219.42929901 200.54768663 219.4072773 208.26800297 219.39273749 215.98838523 C219.38097041 221.90376318 219.35876747 227.81907271 219.33261681 233.73440552 C219.32352124 236.16445123 219.31784621 238.59451242 219.31578636 241.02457428 C219.31247781 244.33385551 219.29703839 247.64286183 219.2784729 250.9520874 C219.28040763 251.92095501 219.28234237 252.88982261 219.28433573 253.88804984 C219.27687024 254.77382972 219.26940475 255.6596096 219.26171303 256.57223129 C219.25829554 257.71822725 219.25829554 257.71822725 219.25480902 258.88737464 C218.96208247 261.31437476 218.25964517 262.91495149 217 265 C213.49667367 267.63359102 210.16079945 267.07652163 205.9375 266.75 C204.89335937 266.67265625 204.89335937 266.67265625 203.828125 266.59375 C198.37454366 266.16904632 192.93787423 265.58874405 187.5 265 C148.78193712 260.83982681 107.36678359 260.85173544 70 273 C70 273.33 70 273.66 70 274 C70.72888428 273.96970703 71.45776855 273.93941406 72.20874023 273.90820312 C80.47136043 273.56981118 88.73472311 273.26595587 97 273 C97.81307617 272.97373535 98.62615234 272.9474707 99.46386719 272.92041016 C146.39455976 271.61863419 194.78956976 280.60427624 238.359375 298.00390625 C240.84150638 299.11764765 240.84150638 299.11764765 243 299 C243 203.3 243 107.6 243 9 C235.41 9 227.82 9 220 9 Z " fill="#2c3e50" transform="translate(249,114)"/>
</svg>
