<?xml version="1.0" encoding="UTF-8"?>
<svg version="1.1" xmlns="http://www.w3.org/2000/svg" width="512" height="512">
<path d="M0 0 C10.90320287 8.90330234 20.60026438 19.4652861 30.52832031 29.41479492 C32.37221641 31.25897356 34.21633366 33.10293111 36.06065369 34.94668579 C40.00887031 38.89438165 43.95527255 42.84388353 47.90039825 46.7946682 C53.60417621 52.50662237 59.31076017 58.21576656 65.01800177 63.9242597 C74.28072659 73.18916549 83.54122267 82.4562956 92.80029297 91.72485352 C101.78706709 100.72082657 110.77490574 109.71573388 119.76416016 118.70922852 C120.31957565 119.26490673 120.87499114 119.82058494 121.4472374 120.39310189 C124.23399384 123.1811635 127.02077103 125.96920437 129.80755854 128.75723493 C152.87492315 151.83494239 175.9386604 174.91627177 199 198 C202.04071689 196.64001476 204.13390978 195.11286053 206.47841072 192.75651169 C207.15250327 192.08393444 207.82659582 191.41135719 208.52111542 190.71839881 C209.25359588 189.97736419 209.98607634 189.23632957 210.74075317 188.47283936 C211.91748464 187.29443776 211.91748464 187.29443776 213.11798847 186.09223008 C215.75415583 183.44997488 218.38310363 180.8006499 221.01220703 178.15136719 C222.89756878 176.25889516 224.78333599 174.36683606 226.66966248 172.47532654 C230.73614455 168.39624473 234.79916458 164.31374093 238.86008072 160.22911835 C244.74035303 154.31488266 250.62805226 148.40808383 256.51797806 142.50346354 C266.08540225 132.91213985 275.64982004 123.31782539 285.2109375 113.72021484 C285.78324104 113.14573106 286.35554458 112.57124727 286.94519065 111.97935489 C295.05856932 103.8347859 303.1689422 95.68723031 311.27809535 87.53845444 C311.84857974 86.96518342 312.41906414 86.3919124 313.00683594 85.80126953 C313.57662116 85.22869725 314.14640638 84.65612497 314.73345782 84.06620201 C324.24782303 74.5057023 333.76995376 64.95298047 343.29843605 55.40655065 C349.17136922 49.52193401 355.03771846 43.63090358 360.89566939 37.73137173 C364.91497017 33.68456862 368.94154037 29.64509409 372.97380872 25.61121216 C375.29715998 23.28645852 377.61601756 20.95751767 379.92832375 18.62177086 C382.44211873 16.08348968 384.96808933 13.55795779 387.49734497 11.03509521 C388.2164411 10.30298348 388.93553723 9.57087175 389.67642415 8.81657481 C397.49741907 1.07190082 406.49038547 -5.16814087 417.81054688 -5.3293457 C418.49181641 -5.32378662 419.17308594 -5.31822754 419.875 -5.3125 C420.58462891 -5.30758545 421.29425781 -5.3026709 422.02539062 -5.29760742 C427.47428387 -5.17542088 431.18604445 -4.49294127 436 -2 C436.66128906 -1.6596875 437.32257813 -1.319375 438.00390625 -0.96875 C446.57719924 3.84661001 452.47696555 11.46453712 455.5859375 20.75 C457.86455012 33.13189498 455.76128572 43.25567272 448.83117712 53.53408873 C445.57064212 57.92481092 441.72108274 61.69769753 437.84858704 65.54582214 C436.93650598 66.4639943 436.02442493 67.38216646 435.08470505 68.32816201 C432.57223324 70.85693132 430.05059391 73.37637568 427.52722609 75.89426601 C424.79984749 78.61896181 422.0811145 81.35226243 419.3611908 84.08439636 C414.0388009 89.42778877 408.70823463 94.76295039 403.37444148 100.09495779 C399.03741202 104.43067719 394.70295555 108.76895269 390.37029076 113.10903358 C389.12001494 114.3614087 387.86973827 115.61378297 386.61946076 116.8661564 C385.99707704 117.48958365 385.37469332 118.1130109 384.73344948 118.75532988 C372.97573683 130.5319235 361.20808809 142.29854983 349.4375188 154.06229124 C338.68062552 164.81360876 327.93699519 175.57807011 317.19945631 186.3487142 C306.16058061 197.42135835 295.11241572 208.48465631 284.05433339 219.53812009 C277.85160609 225.73860614 271.65264926 231.94275253 265.46352577 238.1568203 C260.19503429 243.44636545 254.91785668 248.72705395 249.62940273 253.99664374 C246.93412039 256.68279402 244.24293975 259.37272837 241.562603 262.07379913 C238.65068407 265.00799258 235.71957691 267.92225523 232.78633118 270.83512878 C231.95089273 271.68308508 231.11545429 272.53104137 230.25469953 273.40469331 C220.63811538 282.87909886 211.60977598 287.28966509 198.21289062 287.31689453 C183.63273515 287.04970164 174.40080902 277.70309677 164.61239624 267.8865509 C163.24254497 266.52455465 163.24254497 266.52455465 161.84501994 265.13504332 C159.32764286 262.63175479 156.81646289 260.12233132 154.3063426 257.61176908 C151.59140088 254.89848362 148.87075919 252.19092315 146.15092468 249.48254395 C140.21394615 243.56834868 134.28437844 237.64676057 128.35625029 231.72369599 C124.65137579 228.02208517 120.94487254 224.32210828 117.23802567 220.62247276 C106.96440471 210.36840613 96.6923573 200.11277073 86.42705345 189.85037708 C85.77106648 189.19457768 85.11507951 188.53877828 84.43921415 187.86310617 C83.10954039 186.53379865 81.7798679 185.20448986 80.45019667 183.8751798 C79.79019622 183.21536217 79.13019577 182.55554453 78.45019531 181.87573242 C77.78938609 181.21510375 77.12857687 180.55447508 76.44774313 179.87382736 C65.73710227 169.1667291 55.01476638 158.47142634 44.28722672 147.78126172 C33.25988995 136.79203621 22.24196621 125.79344751 11.23351729 114.78530043 C5.05787709 108.61024403 -1.12163254 102.43917706 -7.31145096 96.27832985 C-12.58079484 91.03353706 -17.84139134 85.78016072 -23.09096076 80.51557253 C-25.7669612 77.83241953 -28.4467613 75.15338947 -31.13771629 72.48522758 C-34.06101411 69.58645382 -36.96437683 66.66847561 -39.86636353 63.74836731 C-41.13348472 62.50104607 -41.13348472 62.50104607 -42.42620432 61.22852641 C-51.95179632 51.56695959 -56.26775706 42.58569636 -56.24658203 29.14257812 C-56.07334123 18.67218869 -52.62363806 11.71604526 -45.3359375 4.30859375 C-32.79002916 -7.12021316 -14.52141314 -8.71806219 0 0 Z " fill="#2c3e50" transform="translate(56,115)"/>
</svg>
