<?xml version="1.0" encoding="UTF-8"?>
<svg version="1.1" xmlns="http://www.w3.org/2000/svg" width="512" height="512">
<path d="M0 0 C2.9347542 2.5530508 5.67650504 5.27029642 8.41363525 8.03268433 C9.21000641 8.82437551 10.00637756 9.61606669 10.82688117 10.43174851 C13.47539825 13.06836472 16.1131394 15.71549522 18.75097656 18.36279297 C20.65487993 20.26262851 22.55935815 22.16187158 24.46453857 24.0604248 C29.08953085 28.67211824 33.7064261 33.29183534 38.3204129 37.91453706 C42.07179178 41.67270646 45.82610726 45.42791878 49.5825119 49.18106461 C50.11826896 49.71636196 50.65402602 50.25165932 51.20601813 50.80317781 C52.29458699 51.89078744 53.38316255 52.97839036 54.47174475 54.06598665 C64.66459605 64.25029555 74.84825336 74.44375786 85.02876088 84.64040388 C93.75583681 93.38088578 102.49075353 102.11346707 111.23144531 110.84033203 C121.39454185 120.98735905 131.55273482 131.13925415 141.70319724 141.29892075 C142.78637561 142.38305472 143.86956023 143.46718245 144.95275116 144.55130386 C145.4856301 145.08464563 146.01850904 145.6179874 146.56753583 146.16749104 C150.31507132 149.91761201 154.06606673 153.66425044 157.81842804 157.40954208 C162.39317233 161.97585611 166.96249905 166.54751047 171.52505139 171.12600766 C173.85105979 173.45987765 176.18016051 175.79050075 178.51426697 178.11627579 C181.04795374 180.64175183 183.5721986 183.17630919 186.09429932 185.71334839 C186.82844 186.44079691 187.56258069 187.16824543 188.31896806 187.91773784 C196.38478457 196.07632464 201.41301912 203.97252207 201.375 215.75 C201.17377325 237.03639572 181.64343325 250.50941957 167.62036133 264.54077148 C165.77933646 266.38643331 163.93850625 268.23228932 162.09785461 270.07832336 C157.12978385 275.05985817 152.15804452 280.03772032 147.18544984 285.0147388 C144.07565159 288.1273152 140.96658484 291.24062158 137.85764122 294.35405159 C129.23172748 302.99213361 120.60488507 311.62928577 111.97458363 320.26298428 C111.14956549 321.08833176 111.14956549 321.08833176 110.30788032 321.93035293 C109.75666288 322.48178865 109.20544543 323.03322438 108.63752443 323.60137028 C107.52079923 324.71853891 106.4040756 325.83570911 105.28735352 326.95288086 C104.45647865 327.78408787 104.45647865 327.78408787 103.60881843 328.63208694 C94.61450472 337.63035694 85.62697811 346.63537375 76.64231507 355.64327883 C67.39502558 364.91429507 58.14210754 374.17966251 48.88352984 383.43940598 C43.69414829 388.6297026 38.50719139 393.82237109 33.32645607 399.02129936 C28.46019589 403.90459023 23.58627793 408.78012151 18.70710564 413.65051079 C16.91950073 415.4373448 15.13445363 417.226742 13.35218048 419.0188942 C10.91675121 421.46702892 8.47221943 423.90570495 6.02522278 426.3422699 C4.97418443 427.40539285 4.97418443 427.40539285 3.90191299 428.48999304 C-4.37426776 436.68403997 -11.96748757 440.97803202 -23.8125 441.375 C-33.85920474 441.18343148 -40.71940896 438.17963278 -48.01953125 431.29296875 C-55.56236036 422.55994964 -56.64539345 413.14216999 -56 402 C-54.27893902 391.46836996 -46.11264588 383.80462029 -38.81825256 376.57774353 C-37.78635124 375.54327893 -37.78635124 375.54327893 -36.73360342 374.48791605 C-34.45219527 372.2032421 -32.16376629 369.92573952 -29.87524414 367.64819336 C-28.2284825 366.00199646 -26.58216231 364.35535785 -24.93624878 362.70831299 C-20.48466006 358.25615222 -16.02694724 353.81016981 -11.568084 349.36529613 C-7.3759011 345.18437407 -3.1883555 340.9988167 0.99922759 336.81328828 C9.2882972 328.52858529 17.58181408 320.24834937 25.87817383 311.97094727 C33.93261353 303.93489318 41.9849294 295.89672065 50.03442383 287.85571289 C50.53141303 287.35924914 51.02840222 286.86278539 51.5404517 286.35127728 C54.03393164 283.86040761 56.52737015 281.36949647 59.02078807 278.87856472 C79.67410744 258.24594567 100.33474035 237.62065973 121 217 C119.71141524 214.16805031 118.36576268 212.11802397 116.16256332 209.92764091 C115.58055436 209.34411665 114.99854539 208.76059238 114.39889979 208.15938556 C113.43909485 207.21241186 113.43909485 207.21241186 112.4598999 206.24630737 C111.7804712 205.56799209 111.1010425 204.8896768 110.40102506 204.19080651 C108.11807532 201.91393954 105.82806696 199.64430515 103.53808594 197.37451172 C101.90176969 195.74530656 100.26592176 194.11563092 98.63050842 192.48551941 C95.10447167 188.97259614 91.57545346 185.46270489 88.04421234 181.95501328 C82.45768277 176.40504257 76.87982942 170.846408 71.30352783 165.28616333 C63.48112589 157.48734735 55.65642372 149.69084845 47.82861328 141.89746094 C47.33188548 141.40291338 46.83515768 140.90836582 46.32337752 140.39883198 C39.2827959 133.38943376 32.23922587 126.3830462 25.19443181 119.37788202 C24.45115926 118.6387894 24.45115926 118.6387894 23.69287109 117.88476562 C22.9505055 117.14658062 22.9505055 117.14658062 22.19314262 116.39348279 C13.92536648 108.17186324 5.66550487 99.9423461 -2.58830619 91.70670712 C-8.12639353 86.18168308 -13.67336358 80.66578589 -19.2271266 75.15652156 C-22.68745125 71.71972212 -26.13932066 68.27452616 -29.58889961 64.82694435 C-31.1857354 63.23438979 -32.78599834 61.64526276 -34.38998985 60.05991554 C-55.63714356 39.050141 -55.63714356 39.050141 -56.3125 23.625 C-56.02135558 13.67471122 -52.19335351 6.26498597 -45.30078125 -0.72265625 C-31.54948888 -13.29968096 -13.95158784 -10.48296087 0 0 Z " fill="#ffffff" transform="translate(87,40)"/>
<path d="M0 0 C2.9347542 2.5530508 5.67650504 5.27029642 8.41363525 8.03268433 C9.21000641 8.82437551 10.00637756 9.61606669 10.82688117 10.43174851 C13.47539825 13.06836472 16.1131394 15.71549522 18.75097656 18.36279297 C20.65487993 20.26262851 22.55935815 22.16187158 24.46453857 24.0604248 C29.08953085 28.67211824 33.7064261 33.29183534 38.3204129 37.91453706 C42.07179178 41.67270646 45.82610726 45.42791878 49.5825119 49.18106461 C50.11826896 49.71636196 50.65402602 50.25165932 51.20601813 50.80317781 C52.29458699 51.89078744 53.38316255 52.97839036 54.47174475 54.06598665 C64.66459605 64.25029555 74.84825336 74.44375786 85.02876088 84.64040388 C93.75583681 93.38088578 102.49075353 102.11346707 111.23144531 110.84033203 C121.39454185 120.98735905 131.55273482 131.13925415 141.70319724 141.29892075 C142.78637561 142.38305472 143.86956023 143.46718245 144.95275116 144.55130386 C145.4856301 145.08464563 146.01850904 145.6179874 146.56753583 146.16749104 C150.31507132 149.91761201 154.06606673 153.66425044 157.81842804 157.40954208 C162.39317233 161.97585611 166.96249905 166.54751047 171.52505139 171.12600766 C173.85105979 173.45987765 176.18016051 175.79050075 178.51426697 178.11627579 C181.04795374 180.64175183 183.5721986 183.17630919 186.09429932 185.71334839 C186.82844 186.44079691 187.56258069 187.16824543 188.31896806 187.91773784 C197.2338997 196.935206 201.43206918 205.14542012 201.36352539 217.95727539 C201.00767976 231.74668888 191.26072008 241.04898461 181.96768188 250.29301453 C180.79829781 251.46813692 180.79829781 251.46813692 179.60528982 252.66699916 C177.01322017 255.26931989 174.41413197 257.8645099 171.81494141 260.4597168 C169.94635435 262.33265461 168.07815617 264.20597331 166.21040344 266.07974243 C161.67602446 270.62682302 157.13623194 275.16846043 152.59432508 279.70802053 C148.90113125 283.39942644 145.20971811 287.0926041 141.51954269 290.78702736 C140.99299563 291.31416961 140.46644857 291.84131186 139.92394554 292.38442812 C138.85405971 293.45552577 137.78417503 294.52662458 136.7142915 295.59772453 C126.69802537 305.62484808 116.67527085 315.64546638 106.65052252 325.66410867 C97.49043367 334.81902635 88.33858995 343.982136 79.19059367 353.14913573 C69.78191037 362.57721313 60.36766148 371.9996998 50.94739854 381.41620761 C45.66486142 386.69683555 40.38453027 391.97962419 35.11003494 397.26828575 C30.62127356 401.76898172 26.12726176 406.26435411 21.62648989 410.75304063 C19.33297717 413.04068011 17.0427222 415.33141661 14.7573452 417.62718773 C12.27388747 420.12112257 9.78130993 422.60558099 7.2862854 425.0879364 C6.57410469 425.8074914 5.86192397 426.5270464 5.12816203 427.26840609 C-3.55119775 435.85563844 -11.37507793 440.94519708 -23.8125 441.375 C-33.85920474 441.18343148 -40.71940896 438.17963278 -48.01953125 431.29296875 C-55.56236036 422.55994964 -56.64539345 413.14216999 -56 402 C-54.27893902 391.46836996 -46.11264588 383.80462029 -38.81825256 376.57774353 C-37.78635124 375.54327893 -37.78635124 375.54327893 -36.73360342 374.48791605 C-34.45219527 372.2032421 -32.16376629 369.92573952 -29.87524414 367.64819336 C-28.2284825 366.00199646 -26.58216231 364.35535785 -24.93624878 362.70831299 C-20.48466006 358.25615222 -16.02694724 353.81016981 -11.568084 349.36529613 C-7.3759011 345.18437407 -3.1883555 340.9988167 0.99922759 336.81328828 C9.2882972 328.52858529 17.58181408 320.24834937 25.87817383 311.97094727 C33.93261353 303.93489318 41.9849294 295.89672065 50.03442383 287.85571289 C50.53141303 287.35924914 51.02840222 286.86278539 51.5404517 286.35127728 C54.03393164 283.86040761 56.52737015 281.36949647 59.02078807 278.87856472 C79.67410744 258.24594567 100.33474035 237.62065973 121 217 C119.71141524 214.16805031 118.36576268 212.11802397 116.16256332 209.92764091 C115.58055436 209.34411665 114.99854539 208.76059238 114.39889979 208.15938556 C113.43909485 207.21241186 113.43909485 207.21241186 112.4598999 206.24630737 C111.7804712 205.56799209 111.1010425 204.8896768 110.40102506 204.19080651 C108.11807532 201.91393954 105.82806696 199.64430515 103.53808594 197.37451172 C101.90176969 195.74530656 100.26592176 194.11563092 98.63050842 192.48551941 C95.10447167 188.97259614 91.57545346 185.46270489 88.04421234 181.95501328 C82.45768277 176.40504257 76.87982942 170.846408 71.30352783 165.28616333 C63.48112589 157.48734735 55.65642372 149.69084845 47.82861328 141.89746094 C47.33188548 141.40291338 46.83515768 140.90836582 46.32337752 140.39883198 C39.2827959 133.38943376 32.23922587 126.3830462 25.19443181 119.37788202 C24.45115926 118.6387894 24.45115926 118.6387894 23.69287109 117.88476562 C22.9505055 117.14658062 22.9505055 117.14658062 22.19314262 116.39348279 C13.92536648 108.17186324 5.66550487 99.9423461 -2.58830619 91.70670712 C-8.12639353 86.18168308 -13.67336358 80.66578589 -19.2271266 75.15652156 C-22.68745125 71.71972212 -26.13932066 68.27452616 -29.58889961 64.82694435 C-31.1857354 63.23438979 -32.78599834 61.64526276 -34.38998985 60.05991554 C-55.63714356 39.050141 -55.63714356 39.050141 -56.3125 23.625 C-56.02135558 13.67471122 -52.19335351 6.26498597 -45.30078125 -0.72265625 C-31.54948888 -13.29968096 -13.95158784 -10.48296087 0 0 Z " fill="#ffffff" transform="translate(279,40)"/>
</svg>
