<?xml version="1.0" encoding="UTF-8"?>
<svg xmlns="http://www.w3.org/2000/svg" version="1.1" width="512" height="512">
<g><path style="opacity:0.984" fill="#ffffff" d="M 237.5,14.5 C 328.256,11.1355 400.756,45.4688 455,117.5C 479.423,153.04 493.757,192.374 498,235.5C 499.092,264.651 499.592,293.818 499.5,323C 499.601,351.517 499.101,380.017 498,408.5C 491.309,443.85 471.809,469.35 439.5,485C 420.37,491.412 400.703,495.245 380.5,496.5C 368.203,496.027 360.037,490.027 356,478.5C 355.011,415.109 355.344,351.776 357,288.5C 361.694,278.984 369.36,273.984 380,273.5C 404.485,275.749 428.985,277.749 453.5,279.5C 457.669,205.363 431.002,145.196 373.5,99C 312.338,56.6822 247.005,49.0155 177.5,76C 109.878,107.645 70.3783,160.478 59,234.5C 57.7716,249.475 57.2716,264.475 57.5,279.5C 82.0062,277.638 106.506,275.638 131,273.5C 143.441,274.278 151.441,280.612 155,292.5C 155.667,354.5 155.667,416.5 155,478.5C 150.963,490.027 142.797,496.027 130.5,496.5C 112.509,495.049 94.842,491.883 77.5,487C 45.7565,473.703 24.9232,450.536 15,417.5C 13.1974,409.266 12.1974,400.933 12,392.5C 11.3333,344.5 11.3333,296.5 12,248.5C 17.2151,167.209 52.7151,103.042 118.5,56C 154.854,32.4809 194.521,18.6475 237.5,14.5 Z"/></g>
</svg>
