<?xml version="1.0" encoding="UTF-8"?>
<svg version="1.1" xmlns="http://www.w3.org/2000/svg" width="512" height="512">
<path d="M0 0 C6.66185014 4.91441551 12.33987287 10.95924019 17.96854377 16.99290657 C20.91461717 20.10602358 23.9729949 23.10573008 27.01774979 26.12182617 C32.25502757 31.33935404 37.41922809 36.6208203 42.53771973 41.95483398 C49.93709975 49.66556603 57.44164549 57.26679899 64.9743789 64.84703684 C77.197063 77.15250691 89.33280726 89.54006343 101.41511917 101.98327637 C113.13885208 114.05682569 124.90259396 126.08903902 136.7217598 138.06921387 C137.81794691 139.18037622 137.81794691 139.18037622 138.93627922 140.3139863 C142.60338362 144.0306889 146.27128211 147.74660666 149.93957591 151.46213531 C180.28087247 182.19617116 210.48178231 213.06530373 240.5913887 244.02624512 C235.93768226 253.72839202 227.69200471 259.72040285 217.7163887 263.40124512 C211.74739797 265.40251023 206.4658321 266.25911589 200.1538887 266.33874512 C199.42234573 266.36774902 198.69080276 266.39675293 197.93709183 266.42663574 C185.81311282 266.56169292 175.53957299 261.34966906 165.4038887 255.21374512 C163.70125864 254.20733221 161.99861545 253.20094077 160.29521561 252.1958313 C158.54467079 251.16074702 156.79756273 250.12004559 155.05086136 249.07849121 C149.59893782 245.83484986 144.09187898 242.6865359 138.5913887 239.52624512 C136.42709029 238.27795614 134.26302829 237.02925717 132.0992012 235.78015137 C127.74073482 233.26555076 123.38126679 230.7526985 119.0210762 228.24108887 C107.5369005 221.6240162 96.06941977 214.97990535 84.62556839 208.29333496 C74.10032725 202.14757387 63.54044628 196.06228946 52.97908401 189.97888184 C49.39806924 187.91481754 45.81872884 185.84787462 42.2398262 183.78015137 C40.43953004 182.74031657 38.63921039 181.70052245 36.83888626 180.66073608 C35.12223662 179.66906528 33.4058822 178.67688349 31.68953323 177.68469238 C30.65683304 177.08842041 29.62413284 176.49214844 28.5601387 175.87780762 C27.64683792 175.35009766 26.73353714 174.8223877 25.79256058 174.27868652 C21.936777 172.08479014 19.67973117 171.89751054 15.19246292 171.88439941 C14.53512161 171.88092499 13.8777803 171.87745056 13.20051956 171.87387085 C11.7687744 171.86650854 10.33701778 171.86116569 8.90525818 171.85758018 C6.62387628 171.85039394 4.34270693 171.83470358 2.06138992 171.8162384 C-4.42711272 171.76392691 -10.91550866 171.71598271 -17.40421677 171.70031738 C-21.37495863 171.69010395 -25.34517853 171.66043352 -29.31571198 171.61899757 C-30.81521613 171.60685212 -32.31479468 171.60153548 -33.81434631 171.60379601 C-58.97669916 171.6323448 -80.37268362 162.7559601 -98.4086113 145.02624512 C-99.09568161 144.35206543 -99.78275192 143.67788574 -100.49064255 142.98327637 C-116.48658272 126.16703157 -123.81873064 103.60831669 -123.36124802 80.64929199 C-122.16864887 56.05387054 -111.91155512 34.7929353 -94.1586113 17.83874512 C-73.55937339 -0.2141981 -25.65815841 -17.40594731 0 0 Z " fill="#2c3e50" transform="translate(165.40861129760742,190.9737548828125)"/>
<path d="M0 0 C11.53416135 8.24601104 18.63148107 19.94567362 21.1875 33.875 C21.45566034 37.34949127 21.44947138 40.80657068 21.42800903 44.29003906 C21.42971788 45.313679 21.43142673 46.33731894 21.43318737 47.39197826 C21.43647109 50.80826597 21.42549687 54.22435551 21.41455078 57.640625 C21.41398643 60.09497574 21.4143037 62.54932682 21.41543579 65.00367737 C21.41589064 70.28068572 21.41023255 75.55763285 21.39896011 80.83462524 C21.38267294 88.46416344 21.37749382 96.09367774 21.37498413 103.72323143 C21.37061207 116.10309887 21.35731625 128.48293988 21.33837891 140.86279297 C21.32000744 152.88525257 21.30585714 164.90770497 21.29736328 176.93017578 C21.29683783 177.67183589 21.29631239 178.413496 21.29577102 179.17763066 C21.29316085 182.89849928 21.29063346 186.61936796 21.28814721 190.34023666 C21.26742994 221.18517699 21.23206856 252.03008447 21.1875 282.875 C15.75237621 278.34098419 10.70870919 273.53556062 5.71498108 268.5227356 C4.88820608 267.69681502 4.06143108 266.87089445 3.2096023 266.01994598 C0.93188855 263.74358788 -1.34358303 261.46501652 -3.61810029 259.18546534 C-6.07766686 256.72156071 -8.54014302 254.2605669 -11.0022583 251.79920959 C-15.26213863 247.53985238 -19.52019127 243.27867516 -23.77699089 239.01623917 C-29.93153228 232.85355396 -36.08884905 226.69364784 -42.24683613 220.53440593 C-52.23886292 210.54019315 -62.22865675 200.54375151 -72.21704102 190.54589844 C-81.91703784 180.83671578 -91.61808947 171.12858905 -101.32055664 161.421875 C-101.91910369 160.82306523 -102.51765073 160.22425546 -103.13433557 159.60729994 C-106.13722222 156.6031082 -109.14012957 153.59893715 -112.14304721 150.59477639 C-137.03607428 125.69139081 -161.92547522 100.78438387 -186.8125 75.875 C-183.96298424 72.94364154 -181.3936763 70.87565258 -177.796875 68.9140625 C-176.8056665 68.36758057 -175.81445801 67.82109863 -174.79321289 67.25805664 C-173.72707764 66.67789795 -172.66094238 66.09773926 -171.5625 65.5 C-169.28416234 64.24268476 -167.00684262 62.98352346 -164.73046875 61.72265625 C-164.15094955 61.40221848 -163.57143036 61.0817807 -162.97434998 60.75163269 C-157.2243589 57.56525847 -151.54451056 54.264351 -145.875 50.9375 C-143.88418508 49.77071304 -141.893299 48.6040475 -139.90234375 47.4375 C-138.40743408 46.56158203 -138.40743408 46.56158203 -136.88232422 45.66796875 C-131.5792275 42.57062962 -126.25855065 39.50386142 -120.9375 36.4375 C-119.85734619 35.81496338 -118.77719238 35.19242676 -117.66430664 34.55102539 C-115.47453666 33.28923174 -113.28467645 32.02759466 -111.09472656 30.76611328 C-106.74684153 28.2610019 -102.40040254 25.75338898 -98.05419922 23.24536133 C-95.9024409 22.00386257 -93.75042485 20.7628104 -91.59814453 19.5222168 C-86.57073807 16.62389908 -81.54544708 13.72211057 -76.52807617 10.80645752 C-74.76274789 9.78084372 -72.99671529 8.75645336 -71.23046875 7.73242188 C-69.0233368 6.45228534 -66.81751077 5.16989334 -64.61328125 3.88476562 C-43.64138145 -8.266047 -21.91617859 -14.67084737 0 0 Z " fill="#2c3e50" transform="translate(393.8125,102.125)"/>
<path d="M0 0 C2.17599154 1.60159838 2.17599154 1.60159838 4.43787384 3.71534157 C5.31430825 4.53368705 6.19074266 5.35203253 7.09373569 6.19517636 C12.75998826 11.63595178 18.3196523 17.18253025 23.86901855 22.74203491 C25.25369622 24.12555868 26.63859153 25.50886466 28.02368402 26.89197314 C31.80759941 30.67173249 35.5884122 34.45458174 39.36869669 38.23797202 C43.45405291 42.3255972 47.54229345 46.41033593 51.63015747 50.49545288 C59.62733634 58.48819191 67.62181773 66.48362373 75.61532575 74.4800338 C82.10922865 80.97619664 88.60410883 87.47138087 95.09968567 93.9658699 C96.02472398 94.89075498 96.94976229 95.81564006 97.90283206 96.76855195 C99.78204102 98.64744119 101.66125223 100.52632818 103.54046565 102.40521295 C120.64541011 119.50728904 137.74743521 136.6122821 154.84832377 153.71841367 C170.46251172 169.33735237 186.07929041 184.95369625 201.69824219 200.56787109 C219.25461272 218.11889006 236.80936139 235.6715286 254.36151934 253.22676051 C256.23129094 255.09685067 258.10106464 256.96693874 259.97084045 258.83702469 C260.89082198 259.75716049 261.81080351 260.6772963 262.75866327 261.625315 C269.25110378 268.11862003 275.74470619 274.61076172 282.23875427 281.10245895 C290.14406317 289.00496896 298.04759951 296.90924655 305.94883949 304.81582491 C309.98223001 308.85185044 314.01642871 312.8870595 318.05278397 316.92012024 C321.74314844 320.607518 325.43122009 324.29719255 329.11742979 327.98874362 C330.45544921 329.32788553 331.79432345 330.66617395 333.13410991 332.00354795 C334.94692289 333.81334536 336.75666605 335.62615676 338.56563568 337.43979454 C339.09337456 337.96519225 339.62111343 338.49058996 340.16484439 339.03190881 C343.98124577 342.86818653 346.29118183 345.35976445 346.375 350.875 C346.31060826 354.5506949 346.10135249 355.8344576 344.125 359.0625 C341.24281693 361.6903728 339.56697956 362.18916223 335.75 362.3125 C335.00234375 362.34988281 334.2546875 362.38726562 333.484375 362.42578125 C327.49010023 361.39846057 323.10913665 356.39807789 318.97580433 352.23027992 C318.39742137 351.65510345 317.81903842 351.07992697 317.22312871 350.4873209 C315.28696471 348.55945587 313.35798922 346.62455736 311.4289093 344.68960571 C310.02798295 343.29170007 308.62662282 341.89422901 307.22486657 340.49715555 C303.37456106 336.65714885 299.53053094 332.81091329 295.68750989 328.96361828 C291.54180383 324.81544847 287.39036843 320.67301931 283.23968506 316.52983093 C275.10972193 308.41262591 266.98525549 300.28994072 258.86283914 292.16518475 C252.26277086 285.56333464 245.66095984 278.96323185 239.05785179 272.36442184 C238.10919629 271.41636874 237.16054139 270.46831504 236.21188709 269.52026074 C234.78236786 268.09164877 233.35284793 266.66303751 231.92332412 265.23443013 C218.6335384 251.95307333 205.34579973 238.6696713 192.06231403 225.38201332 C191.56159616 224.88113907 191.06087828 224.38026481 190.54498713 223.86421255 C188.00714978 221.32556942 185.46933243 218.78690629 182.93152306 216.24823518 C182.42750415 215.74404518 181.92348523 215.23985517 181.40419301 214.72038669 C180.38494554 213.70079255 179.365699 212.68119749 178.3464534 211.66160148 C162.48153331 195.79132237 146.60997878 179.92770548 130.7331543 164.06933594 C112.89645584 146.25334627 95.06475227 128.43237892 77.24041528 110.60402143 C75.34052527 108.70373607 73.44061836 106.80346761 71.54070091 104.90320969 C71.07289417 104.43531221 70.60508743 103.96741474 70.12310473 103.48533855 C63.05706836 96.41813559 55.98711544 89.35487234 48.91521645 82.29353714 C40.87501681 74.26522612 32.84005278 66.23172039 24.81186572 58.19139625 C20.71406108 54.08768566 16.61385829 49.98644812 12.50713158 45.89166451 C8.74993905 42.14527203 4.99970272 38.39206134 1.25495722 34.63322847 C-0.10298676 33.27262134 -1.46348414 31.91455701 -2.82673749 30.55926962 C-4.67592761 28.72013939 -6.51567732 26.87205262 -8.35332775 25.02140236 C-9.15474322 24.23095091 -9.15474322 24.23095091 -9.9723489 23.42453074 C-13.90685412 19.4319105 -16.6192167 15.6110855 -17.4375 10 C-16.8708265 6.11423889 -15.47260877 4.02207739 -13 1 C-8.54223021 -1.74680006 -4.89790441 -1.55396509 0 0 Z " fill="#2c3e50" transform="translate(122,106)"/>
</svg>
