<?xml version="1.0" encoding="UTF-8"?>
<svg version="1.1" xmlns="http://www.w3.org/2000/svg" width="512" height="512">
<path d="M0 0 C4.19678167 3.01722784 8.2015162 6.22165335 12.18554688 9.51220703 C15.08560011 11.89015703 18.04422291 14.19199066 21 16.5 C22.16697184 17.41627814 23.33363813 18.33294554 24.5 19.25 C25.0775 19.70375 25.655 20.1575 26.25 20.625 C28 22 29.75 23.375 31.5 24.75 C32.36612915 25.43050415 32.36612915 25.43050415 33.24975586 26.12475586 C34.4173041 27.04215009 35.58478449 27.95963067 36.75219727 28.87719727 C39.6548279 31.15844245 42.55859274 33.43821214 45.46484375 35.71484375 C50.81695098 39.91000342 56.15642325 44.1182858 61.45507812 48.38085938 C67.38671351 53.15236418 73.37334995 57.83539728 79.4375 62.4375 C85.72461783 67.20998428 91.87841971 72.11828174 97.98022461 77.12475586 C102.7451229 81.01916076 107.5953639 84.78355443 112.5 88.5 C118.7572134 93.24134932 124.8797303 98.11783552 130.94750977 103.09863281 C138.01945107 108.8800482 145.28930055 114.39778399 152.57983398 119.89941406 C154 121 154 121 155 122 C155.00364563 120.90134109 155.00729126 119.80268219 155.01104736 118.67073059 C155.04813632 108.27029188 155.10605969 97.87014546 155.18390274 87.4699297 C155.22325736 82.12422853 155.25550451 76.77868913 155.27099609 71.43286133 C155.28624213 66.26495436 155.32082738 61.09749251 155.36830902 55.92978477 C155.3830413 53.96727068 155.39103628 52.004693 155.39188385 50.04212379 C155.40742167 32.08909453 157.72554414 18.83482477 170.375 5.1875 C178.16473172 -2.25055083 186.11736834 -4.43680389 196.6484375 -4.25 C212.24185926 -3.08685432 225.42130234 11.64537339 236.97900391 21.12280273 C241.74335758 25.01905024 246.59478878 28.78311864 251.5 32.5 C257.76846285 37.24987349 263.9007704 42.13652956 269.98046875 47.125 C274.74532993 51.01926768 279.59545518 54.7836236 284.5 58.5 C290.76846285 63.24987349 296.9007704 68.13652956 302.98046875 73.125 C307.74532993 77.01926768 312.59545518 80.7836236 317.5 84.5 C323.76846285 89.24987349 329.9007704 94.13652956 335.98046875 99.125 C340.74539402 103.01932007 345.59665266 106.78197289 350.5 110.5 C353.33638913 112.66268962 356.16887795 114.83042155 359 117 C359.72348633 117.55220215 360.44697266 118.1044043 361.19238281 118.67333984 C374.36745884 128.79106987 384.3819352 139.07435566 388 156 C389.39392473 173.98066772 386.91820557 187.72777364 376.203125 202.47265625 C373.65851122 205.39174334 370.82358075 207.67761398 367.75 210 C366.49506606 210.96611446 365.24120214 211.93362005 363.98828125 212.90234375 C363.33553223 213.40620605 362.6827832 213.91006836 362.01025391 214.42919922 C358.60913151 217.0868166 355.27655279 219.8276184 351.9375 222.5625 C346.10284478 227.32716578 340.1947962 231.97277578 334.20703125 236.54296875 C329.01404178 240.50919233 323.89379039 244.56880095 318.76171875 248.61328125 C317.02010212 249.98417682 315.27612115 251.35199991 313.53125 252.71875 C307.49559305 257.44811287 301.48233799 262.20332281 295.5 267 C288.94437 272.25634643 282.34861504 277.4594206 275.73388672 282.64111328 C272.82033173 284.92453303 269.91035807 287.21250803 267 289.5 C265.83335027 290.41668823 264.66668361 291.3333549 263.5 292.25 C262.9225 292.70375 262.345 293.1575 261.75 293.625 C255.33333333 298.66666667 248.91666667 303.70833333 242.5 308.75 C241.92217773 309.20407227 241.34435547 309.65814453 240.74902344 310.12597656 C239.58588317 311.03973333 238.42247295 311.95314658 237.25878906 312.86621094 C234.2858266 315.19961173 231.31823498 317.5393598 228.359375 319.890625 C203.39504407 339.70081277 203.39504407 339.70081277 187 338 C176.72683528 335.77637127 169.33529343 328.38032018 163.125 320.25 C155.27244461 307.87671663 155.3967359 295.19294354 155.390625 281.04296875 C155.37561691 279.04371316 155.35888433 277.04446984 155.34051514 275.04524231 C155.29712442 269.82574848 155.2769057 264.60642182 155.26177979 259.38677979 C155.24210599 254.0435611 155.20014802 248.70052028 155.16015625 243.35742188 C155.08516098 232.90500317 155.03468447 222.45262486 155 212 C154.54002373 212.37466148 154.08004745 212.74932297 153.60613251 213.13533783 C151.50286239 214.84796082 149.39889833 216.55972921 147.29492188 218.27148438 C146.57133484 218.86088806 145.8477478 219.45029175 145.10223389 220.05755615 C140.30069843 223.96269551 135.45275525 227.78803071 130.5 231.5 C124.13720295 236.3163864 117.91326578 241.27686932 111.74047852 246.33374023 C107.68974809 249.64587594 103.598721 252.89040072 99.4375 256.0625 C94.82130486 259.58284562 90.27053089 263.17033813 85.75 266.8125 C80.41710081 271.10672005 75.01719909 275.29925961 69.5625 279.4375 C63.27530136 284.20987405 57.12157614 289.11828515 51.01977539 294.12475586 C45.56246208 298.58507934 39.98118982 302.86475879 34.36206055 307.1184082 C29.42321254 310.87161592 24.60126018 314.74524956 19.8125 318.6875 C14.79853676 322.79308298 9.7369008 326.80644133 4.5 330.625 C3.4378125 331.40101563 2.375625 332.17703125 1.28125 332.9765625 C-7.27091497 338.25039756 -15.79276809 339.56000691 -25.70703125 337.4140625 C-36.44943828 333.72611804 -44.53214024 324.67066877 -50 315 C-55.81380215 302.78950002 -54.56304529 289.11808338 -54.51757812 275.9453125 C-54.52300431 273.30440358 -54.52998635 270.66353957 -54.53881836 268.02264404 C-54.55652327 261.61845219 -54.5527997 255.21444878 -54.5411678 248.81024981 C-54.53210191 243.60136918 -54.53092304 238.39254105 -54.53526306 233.18365479 C-54.53587599 232.43982202 -54.53648893 231.69598925 -54.53712043 230.92961609 C-54.53839945 229.41812053 -54.5396963 227.90662498 -54.5410108 226.39512944 C-54.55239307 212.25094502 -54.53933995 198.10686462 -54.51780933 183.96269727 C-54.49994047 171.84942842 -54.50304524 159.73631296 -54.52148438 147.62304688 C-54.54293281 133.52645027 -54.55129465 119.42994462 -54.53903532 105.33333397 C-54.53776124 103.82767107 -54.53650376 102.32200815 -54.53526306 100.81634521 C-54.53433741 99.7053767 -54.53433741 99.7053767 -54.53339306 98.57196438 C-54.52995205 93.37463438 -54.53574142 88.1773625 -54.54518127 82.9800415 C-54.55644694 76.63862183 -54.55326599 70.29739998 -54.5320583 63.95600271 C-54.52160869 60.72589818 -54.51950585 57.49618717 -54.53065491 54.26607513 C-54.59225017 34.60139679 -53.55237076 20.21354966 -39.625 5.1875 C-28.87568351 -5.07652004 -13.02270633 -7.77130481 0 0 Z " fill="#2c3e50" transform="translate(89,89)"/>
</svg>
