<?xml version="1.0" encoding="UTF-8"?>
<svg version="1.1" xmlns="http://www.w3.org/2000/svg" width="512" height="512">
<path d="M0 0 C5.05262604 3.74901256 9.47018572 8.09071888 13.86206055 12.57568359 C17.08221634 15.86192573 20.4243692 18.90313217 23.921875 21.88671875 C26.97510421 24.59934869 29.796844 27.53491078 32.6640625 30.44140625 C34.67711882 32.42610967 36.73727653 34.28987541 38.8828125 36.12890625 C42.67639983 39.38055253 46.15673897 42.88603719 49.6640625 46.44140625 C51.67711882 48.42610967 53.73727653 50.28987541 55.8828125 52.12890625 C59.67639983 55.38055253 63.15673897 58.88603719 66.6640625 62.44140625 C68.67711882 64.42610967 70.73727653 66.28987541 72.8828125 68.12890625 C76.67639983 71.38055253 80.15673897 74.88603719 83.6640625 78.44140625 C85.67711882 80.42610967 87.73727653 82.28987541 89.8828125 84.12890625 C93.67639983 87.38055253 97.15673897 90.88603719 100.6640625 94.44140625 C102.67711882 96.42610967 104.73727653 98.28987541 106.8828125 100.12890625 C110.67639983 103.38055253 114.15673897 106.88603719 117.6640625 110.44140625 C119.67711882 112.42610967 121.73727653 114.28987541 123.8828125 116.12890625 C127.67639983 119.38055253 131.15673897 122.88603719 134.6640625 126.44140625 C136.67711882 128.42610967 138.73727653 130.28987541 140.8828125 132.12890625 C144.67639983 135.38055253 148.15673897 138.88603719 151.6640625 142.44140625 C153.67711882 144.42610967 155.73727653 146.28987541 157.8828125 148.12890625 C161.67639983 151.38055253 165.15673897 154.88603719 168.6640625 158.44140625 C170.67711882 160.42610967 172.73727653 162.28987541 174.8828125 164.12890625 C178.67639983 167.38055253 182.15673897 170.88603719 185.6640625 174.44140625 C188.28793868 177.02832643 191.04672884 179.41273897 193.84375 181.80859375 C196.96146352 184.59183992 199.85480356 187.58855521 202.78125 190.5703125 C204.50564485 192.2594502 206.21800101 193.73320365 208.1328125 195.19140625 C215.65918109 201.86250568 218.21768509 210.73777774 219.3203125 220.50390625 C218.75122542 232.05163156 213.69197515 241.12299515 205.48828125 248.8984375 C203.79349064 250.42661275 202.08502896 251.93976183 200.36328125 253.4375 C198.06553368 255.46747856 195.90386254 257.56569413 193.7578125 259.75390625 C191.23989247 262.31219374 188.66947993 264.72910283 185.9453125 267.06640625 C182.95479534 269.63555896 180.15164566 272.32207881 177.3828125 275.12890625 C174.02166768 278.53609415 170.54580047 281.70348799 166.9140625 284.81640625 C164.64642678 286.83983505 162.517043 288.96543972 160.3828125 291.12890625 C157.02166768 294.53609415 153.54580047 297.70348799 149.9140625 300.81640625 C147.64642678 302.83983505 145.517043 304.96543972 143.3828125 307.12890625 C140.02166768 310.53609415 136.54580047 313.70348799 132.9140625 316.81640625 C130.64642678 318.83983505 128.517043 320.96543972 126.3828125 323.12890625 C123.02166768 326.53609415 119.54580047 329.70348799 115.9140625 332.81640625 C113.64642678 334.83983505 111.517043 336.96543972 109.3828125 339.12890625 C106.02166768 342.53609415 102.54580047 345.70348799 98.9140625 348.81640625 C96.64642678 350.83983505 94.517043 352.96543972 92.3828125 355.12890625 C89.02166768 358.53609415 85.54580047 361.70348799 81.9140625 364.81640625 C79.64642678 366.83983505 77.517043 368.96543972 75.3828125 371.12890625 C72.02166768 374.53609415 68.54580047 377.70348799 64.9140625 380.81640625 C62.64642678 382.83983505 60.517043 384.96543972 58.3828125 387.12890625 C55.02166768 390.53609415 51.54580047 393.70348799 47.9140625 396.81640625 C45.64642678 398.83983505 43.517043 400.96543972 41.3828125 403.12890625 C38.02166768 406.53609415 34.54580047 409.70348799 30.9140625 412.81640625 C27.84306933 415.55667708 24.99494374 418.50837527 22.10546875 421.4375 C19.45758139 424.04815871 16.67628221 426.45941628 13.8515625 428.875 C11.74446205 430.75215893 9.7869375 432.73055168 7.8203125 434.75390625 C1.20464006 441.42126363 -4.34606133 445.16349285 -13.9921875 445.94140625 C-21.19955534 445.7044135 -27.3326568 443.28806358 -32.61328125 438.375 C-37.87371719 432.26742893 -39.24066842 425.65082161 -39.24861526 417.78996754 C-39.2506679 417.09919206 -39.25272053 416.40841659 -39.25483537 415.69670853 C-39.26051148 413.37085206 -39.25904736 411.04505469 -39.25762939 408.7191925 C-39.26021268 407.03923527 -39.26322574 405.35927866 -39.2666328 403.6793229 C-39.27471037 399.05389063 -39.27649279 394.42847387 -39.27723026 389.80303538 C-39.27907951 384.81787933 -39.28662621 379.83273135 -39.29336548 374.84757996 C-39.30695483 363.94260273 -39.31297449 353.03762918 -39.31737614 342.13264489 C-39.32013761 335.32495753 -39.3243748 328.51727159 -39.32888031 321.70958519 C-39.34107389 302.86536021 -39.35137295 284.02113638 -39.3547554 265.17690754 C-39.35497497 263.97052669 -39.35519453 262.76414584 -39.35542075 261.521208 C-39.35563903 260.31192075 -39.35585731 259.10263351 -39.3560822 257.8567012 C-39.35652567 255.40617645 -39.35697223 252.9556517 -39.35742188 250.50512695 C-39.3576433 249.28957893 -39.35786473 248.0740309 -39.35809287 246.82164808 C-39.36204106 227.12445927 -39.37949533 207.42730744 -39.4027814 187.73013292 C-39.42648956 167.51290949 -39.43895701 147.29570463 -39.44012332 127.07846707 C-39.44104039 115.72500831 -39.44680088 104.37159773 -39.46494293 93.01815224 C-39.4803367 83.35044745 -39.48546866 73.68280575 -39.47720483 64.01509104 C-39.47329574 59.08237667 -39.47424061 54.14978937 -39.48826218 49.21709061 C-39.50098542 44.69982256 -39.4998174 40.18277727 -39.48767146 35.6655096 C-39.48571174 34.03290706 -39.48880564 32.40028882 -39.49751583 30.76770834 C-39.55123154 20.01738022 -39.53882028 10.38258138 -31.86328125 2.1328125 C-22.57037907 -5.87114128 -10.17822571 -6.59143399 0 0 Z " fill="#8e3b46" transform="translate(166.1171875,35.37109375)"/>
</svg>
