<?xml version="1.0" encoding="UTF-8"?>
<svg version="1.1" xmlns="http://www.w3.org/2000/svg" width="512" height="512">
<path d="M0 0 C1.71317162 -0.01441132 1.71317162 -0.01441132 3.46095276 -0.02911377 C4.68805466 -0.03336365 5.91515656 -0.03761353 7.17944336 -0.04199219 C9.0904911 -0.0505423 9.0904911 -0.0505423 11.04014587 -0.05926514 C13.7375749 -0.06870763 16.43489293 -0.07560778 19.13232422 -0.07910156 C22.55583829 -0.08455656 25.97894868 -0.1085302 29.40233707 -0.13707352 C32.70300759 -0.1604149 36.00370195 -0.16216459 39.30444336 -0.16699219 C40.51737564 -0.17933899 41.73030792 -0.19168579 42.97999573 -0.20440674 C59.52396819 -0.1617586 72.5746697 4.80816292 84.62475586 16.25488281 C95.03116429 27.96799608 98.67120953 41.00908094 98.59446716 56.43136597 C98.60254547 58.39158729 98.60254547 58.39158729 98.61078697 60.39140904 C98.62517026 63.99422439 98.62101935 67.5968096 98.61362016 71.19963717 C98.60887303 75.0947727 98.62141196 78.98985954 98.63163757 82.88497925 C98.64880087 90.50641947 98.64967071 98.12777716 98.64442467 105.74923168 C98.64037705 111.946458 98.64183355 118.14366 98.64717293 124.34088516 C98.64792135 125.22418119 98.64866977 126.10747721 98.64944087 127.01753978 C98.65097241 128.81217567 98.65251076 130.60681155 98.65405584 132.40144743 C98.667772 149.21711842 98.66234946 166.03274284 98.65087063 182.84841277 C98.64093967 198.21711648 98.65387811 213.58569977 98.67780482 228.95438491 C98.70221368 244.75234532 98.71179927 260.55024969 98.70515209 276.34822857 C98.70166378 285.21063115 98.70386627 294.07294116 98.72140312 302.93532944 C98.73614748 310.47980037 98.73673145 318.02411353 98.71933221 325.56858145 C98.71083807 329.4141924 98.70863347 333.25952176 98.72398376 337.1051178 C98.7404518 341.282616 98.72564222 345.45943901 98.70799255 349.63693237 C98.72240006 351.44192461 98.72240006 351.44192461 98.73709863 353.28338134 C98.61627474 367.22452635 93.5505029 380.66671513 83.95678711 390.97363281 C73.89331274 400.18350891 61.1420992 406.22860506 47.41357422 406.32226562 C46.27145981 406.33187317 45.1293454 406.34148071 43.95262146 406.35137939 C42.72551956 406.35562927 41.49841766 406.35987915 40.23413086 406.36425781 C38.32308311 406.37280792 38.32308311 406.37280792 36.37342834 406.38153076 C33.67599932 406.39097325 30.97868129 406.3978734 28.28125 406.40136719 C24.85773593 406.40682218 21.43462554 406.43079583 18.01123714 406.45933914 C14.71056662 406.48268052 11.40987226 406.48443021 8.10913086 406.48925781 C6.89619858 406.50160461 5.6832663 406.51395142 4.43357849 406.52667236 C-11.78357599 406.48486672 -24.67866707 401.7851548 -36.50415039 390.57910156 C-48.59948551 377.80262982 -52.10570841 363.47024659 -52.06063843 346.33505249 C-52.0674351 344.42829048 -52.0674351 344.42829048 -52.07436907 342.48300803 C-52.08654126 338.97498389 -52.08634547 335.46705554 -52.08398032 331.95901513 C-52.08357068 328.16742517 -52.09462543 324.37586532 -52.10409546 320.58428955 C-52.12067532 313.16292068 -52.12620366 305.74158359 -52.12732022 298.32019775 C-52.12827224 292.28363703 -52.13239027 286.24708674 -52.13872147 280.21052933 C-52.15632667 263.07437345 -52.16556162 245.93824257 -52.16406052 228.80207758 C-52.16398061 227.87916444 -52.16390069 226.9562513 -52.16381836 226.00537109 C-52.1637366 225.08132346 -52.16365484 224.15727582 -52.1635706 223.20522673 C-52.16275819 208.23941382 -52.18188625 193.27370166 -52.21009509 178.30791788 C-52.23886903 162.9201745 -52.25263287 147.53248018 -52.25090754 132.14470923 C-52.25024513 123.51413759 -52.25567162 114.88367155 -52.27726364 106.25312424 C-52.29553504 98.90305594 -52.29977422 91.55314109 -52.28624479 84.20305984 C-52.27974466 80.45833882 -52.27948972 76.7139117 -52.29695129 72.96921921 C-52.39161017 51.27948566 -52.27328861 32.02737916 -36.48071289 15.28613281 C-26.56320386 6.00629779 -13.67133436 0.09327039 0 0 Z " fill="#000000" transform="translate(125.793212890625,52.8388671875)"/>
<path d="M0 0 C1.71317162 -0.01441132 1.71317162 -0.01441132 3.46095276 -0.02911377 C4.68805466 -0.03336365 5.91515656 -0.03761353 7.17944336 -0.04199219 C9.0904911 -0.0505423 9.0904911 -0.0505423 11.04014587 -0.05926514 C13.7375749 -0.06870763 16.43489293 -0.07560778 19.13232422 -0.07910156 C22.55583829 -0.08455656 25.97894868 -0.1085302 29.40233707 -0.13707352 C32.70300759 -0.1604149 36.00370195 -0.16216459 39.30444336 -0.16699219 C40.51737564 -0.17933899 41.73030792 -0.19168579 42.97999573 -0.20440674 C59.19715021 -0.16260109 72.09224129 4.53711082 83.91772461 15.74316406 C96.01305973 28.5196358 99.51928263 42.85201903 99.47421265 59.98721313 C99.47874376 61.25838781 99.48327487 62.52956248 99.48794329 63.8392576 C99.50011548 67.34728173 99.49991969 70.85521009 99.49755454 74.36325049 C99.4971449 78.15484045 99.50819965 81.9464003 99.51766968 85.73797607 C99.53424954 93.15934494 99.53977788 100.58068203 99.54089443 108.00206788 C99.54184646 114.0386286 99.54596449 120.07517888 99.55229568 126.1117363 C99.56990088 143.24789218 99.57913584 160.38402306 99.57763474 177.52018805 C99.57755482 178.44310119 99.57747491 179.36601433 99.57739258 180.31689453 C99.57731082 181.24094217 99.57722906 182.16498981 99.57714482 183.11703889 C99.57633241 198.08285181 99.59546047 213.04856396 99.62366931 228.01434775 C99.65244325 243.40209113 99.66620709 258.78978545 99.66448176 274.1775564 C99.66381935 282.80812803 99.66924584 291.43859407 99.69083786 300.06914139 C99.70910925 307.41920969 99.71334844 314.76912453 99.69981901 322.11920579 C99.69331888 325.8639268 99.69306394 329.60835393 99.71052551 333.35304642 C99.80518439 355.04277997 99.68686283 374.29488647 83.89428711 391.03613281 C73.97045028 400.32188876 61.07638765 406.2292255 47.39770508 406.32226562 C45.67969193 406.33667694 45.67969193 406.33667694 43.92697144 406.35137939 C42.69673248 406.35562927 41.46649353 406.35987915 40.19897461 406.36425781 C38.92257111 406.36995789 37.6461676 406.37565796 36.33108521 406.38153076 C33.62946007 406.39097261 30.92794575 406.39787326 28.22631836 406.40136719 C24.79373861 406.40682777 21.36156035 406.4308141 17.92910576 406.45933914 C14.62323796 406.48265085 11.31742017 406.48442794 8.01147461 406.48925781 C6.79338104 406.50160461 5.57528748 406.51395142 4.32028198 406.52667236 C-11.7143556 406.4853399 -25.58680988 401.25513801 -37.24633789 390.06738281 C-47.58080367 378.27467953 -51.2578198 365.35025952 -51.18089294 349.89089966 C-51.18627848 348.58408544 -51.19166402 347.27727123 -51.19721276 345.93085659 C-51.21159604 342.32804123 -51.20744513 338.72545602 -51.20004594 335.12262845 C-51.19529882 331.22749292 -51.20783774 327.33240609 -51.21806335 323.43728638 C-51.23522665 315.81584615 -51.23609649 308.19448847 -51.23085045 300.57303394 C-51.22680283 294.37580762 -51.22825933 288.17860563 -51.23359871 281.98138046 C-51.23434713 281.09808444 -51.23509555 280.21478842 -51.23586665 279.30472585 C-51.23739819 277.51008996 -51.23893654 275.71545407 -51.24048162 273.92081819 C-51.25419778 257.1051472 -51.24877524 240.28952278 -51.23729641 223.47385286 C-51.22736545 208.10514915 -51.24030389 192.73656586 -51.2642306 177.36788072 C-51.28863946 161.56992031 -51.29822505 145.77201594 -51.29157788 129.97403705 C-51.28808956 121.11163447 -51.29029205 112.24932447 -51.3078289 103.38693619 C-51.32257326 95.84246525 -51.32315723 88.29815209 -51.30575799 80.75368418 C-51.29726385 76.90807323 -51.29505925 73.06274386 -51.31040955 69.21714783 C-51.32687758 65.03964962 -51.312068 60.86282661 -51.29441833 56.68533325 C-51.30882584 54.88034101 -51.30882584 54.88034101 -51.32352442 53.03888428 C-51.20270052 39.09773928 -46.13692868 25.6555505 -36.54321289 15.34863281 C-26.47973853 6.13875672 -13.72852498 0.09366056 0 0 Z " fill="#000000" transform="translate(338.793212890625,52.8388671875)"/>
</svg>
