<?xml version="1.0" encoding="UTF-8"?>
<svg version="1.1" xmlns="http://www.w3.org/2000/svg" width="512" height="512">
<path d="M0 0 C6.01440155 3.46550501 12.06841357 6.85810368 18.12890625 10.2421875 C29.07557116 16.35961443 39.99835905 22.51815656 50.91113281 28.69580078 C55.69084358 31.40091019 60.47245468 34.10265663 65.25390625 36.8046875 C70.98139681 40.04133146 76.70852276 43.27860896 82.43359375 46.51953125 C92.40144884 52.16056718 102.38110877 57.7793711 112.37890625 63.3671875 C120.88208575 68.12027025 129.35523661 72.92192575 137.80566406 77.76806641 C144.5570748 81.63422613 151.33795345 85.44597031 158.12890625 89.2421875 C170.02425348 95.89417289 181.91256613 102.5569009 193.75390625 109.3046875 C194.81722168 109.90909668 195.88053711 110.51350586 196.97607422 111.13623047 C200.24038687 112.9962473 203.49795844 114.86757349 206.75390625 116.7421875 C207.75107666 117.309375 208.74824707 117.8765625 209.77563477 118.4609375 C223.66579041 126.50479592 232.4175335 136.50661582 236.75390625 152.3046875 C239.13557094 166.47014415 236.80403552 179.8724147 229 192.0390625 C222.00137596 201.37056122 212.257375 206.79612426 202.19140625 212.3671875 C200.71244873 213.19464478 200.71244873 213.19464478 199.20361328 214.03881836 C196.05628187 215.79875773 192.90511837 217.55170811 189.75390625 219.3046875 C185.54417669 221.65636092 181.33655899 224.01180075 177.12890625 226.3671875 C176.08081787 226.95314697 175.03272949 227.53910645 173.95288086 228.14282227 C167.36629727 231.82862923 160.80136058 235.54986151 154.25390625 239.3046875 C145.59968813 244.26769778 136.90422343 249.15406154 128.19580078 254.02124023 C118.31107207 259.54711509 108.45160633 265.11699635 98.59667969 270.69580078 C92.85735781 273.94400854 87.11543558 277.18761777 81.37402344 280.43212891 C76.60658399 283.12645208 71.83973432 285.82180652 67.07421875 288.51953125 C65.17582452 289.59382647 63.27738689 290.668045 61.37890625 291.7421875 C60.4345874 292.27658447 59.49026855 292.81098145 58.51733398 293.36157227 C53.55060798 296.16925428 48.5774226 298.96468542 43.59375 301.7421875 C33.23209252 307.51833262 22.91604069 313.35127072 12.69140625 319.3671875 C4.47342419 324.19382617 -3.80901929 328.87979316 -12.18359375 333.4296875 C-13.64841187 334.22838257 -13.64841187 334.22838257 -15.14282227 335.04321289 C-31.19100177 343.69502101 -44.79752746 348.04888836 -63.08203125 343.3359375 C-75.3299415 339.34402601 -85.77471535 331.25750991 -92 319.91796875 C-97.07743932 309.26967124 -98.39635286 299.88265635 -98.38653564 288.23094177 C-98.38950677 287.12411248 -98.39247789 286.01728318 -98.39553905 284.87691361 C-98.40420248 281.17241062 -98.40573231 277.46794004 -98.40722656 273.76342773 C-98.41185643 271.10534006 -98.41686105 268.44725528 -98.42227173 265.78916931 C-98.43582525 258.56986746 -98.44187525 251.35057118 -98.44628239 244.13125873 C-98.44905014 239.61823138 -98.45328848 235.10520616 -98.45778656 230.59218025 C-98.46997586 218.08210478 -98.4802755 205.57203101 -98.48366165 193.06194973 C-98.48388122 192.26202719 -98.48410078 191.46210464 -98.484327 190.63794202 C-98.48454528 189.8361693 -98.48476356 189.03439658 -98.48498845 188.20832771 C-98.48543191 186.58379074 -98.48587847 184.95925377 -98.48632812 183.3347168 C-98.48654955 182.52890044 -98.48677098 181.72308407 -98.48699912 180.89284904 C-98.49094396 167.84680921 -98.50838991 154.80082534 -98.53168765 141.75480711 C-98.55544713 128.34126848 -98.56786561 114.92775788 -98.56902957 101.51419789 C-98.56994381 93.99084839 -98.57563239 86.4675718 -98.59384918 78.94424248 C-98.60931243 72.53577861 -98.61433421 66.12741019 -98.60611108 59.71893119 C-98.6022263 56.45436147 -98.60468663 53.19002211 -98.61716843 49.92546844 C-98.69241862 29.00937005 -98.40232921 10.87134512 -83.17578125 -5.078125 C-55.94913443 -29.40059616 -27.11202122 -15.64219741 0 0 Z " fill="#2c3e50" transform="translate(186.24609375,92.6953125)"/>
</svg>
