<?xml version="1.0" encoding="UTF-8"?>
<svg version="1.1" xmlns="http://www.w3.org/2000/svg" width="512" height="512">
<path d="M0 0 C10.988643 8.12563812 18.57308456 18.4090886 21 32 C21.7216327 38.95755748 21.6063578 45.97060727 21.609375 52.95703125 C21.62438309 54.95628684 21.64111567 56.95553016 21.65948486 58.95475769 C21.70287558 64.17425152 21.7230943 69.39357818 21.73822021 74.61322021 C21.75789401 79.9564389 21.79985198 85.29947972 21.83984375 90.64257812 C21.91483902 101.09499683 21.96531553 111.54737514 22 122 C22.44999359 121.63303009 22.89998718 121.26606018 23.36361694 120.88796997 C25.43703383 119.19790235 27.51147874 117.50910109 29.5859375 115.8203125 C30.29355225 115.24321533 31.00116699 114.66611816 31.73022461 114.0715332 C37.01515977 109.77125531 42.3767748 105.59096967 47.79296875 101.45703125 C51.19854123 98.8559742 54.57039565 96.21308007 57.9375 93.5625 C58.51902832 93.10472168 59.10055664 92.64694336 59.69970703 92.17529297 C60.8779014 91.24740379 62.05596099 90.31934346 63.23388672 89.39111328 C66.15371048 87.09125763 69.07701893 84.79584055 72 82.5 C73.16668361 81.5833549 74.33335027 80.66668823 75.5 79.75 C82.5 74.25 82.5 74.25 84.24975586 72.87524414 C85.4173041 71.95784991 86.58478449 71.04036933 87.75219727 70.12280273 C90.6548279 67.84155755 93.55859274 65.56178786 96.46484375 63.28515625 C101.81695098 59.08999658 107.15642325 54.8817142 112.45507812 50.61914062 C118.38671351 45.84763582 124.37334995 41.16460272 130.4375 36.5625 C136.04341421 32.30711015 141.55813514 27.96318956 147 23.5 C182.51469712 -5.58957299 182.51469712 -5.58957299 200 -4 C210.26970285 -1.79829392 217.67330924 5.63094216 223.875 13.75 C232.59855255 27.61157732 231.57217852 42.23583129 231.51757812 58.0546875 C231.52300431 60.69559642 231.52998635 63.33646043 231.53881836 65.97735596 C231.55652327 72.38154781 231.5527997 78.78555122 231.5411678 85.18975019 C231.53210191 90.39863082 231.53092304 95.60745895 231.53526306 100.81634521 C231.53587599 101.56017798 231.53648893 102.30401075 231.53712043 103.07038391 C231.53839945 104.58187947 231.5396963 106.09337502 231.5410108 107.60487056 C231.55239307 121.74905498 231.53933995 135.89313538 231.51780933 150.03730273 C231.49994047 162.15057158 231.50304524 174.26368704 231.52148438 186.37695312 C231.54293281 200.47354973 231.55129465 214.57005538 231.53903532 228.66666603 C231.53776124 230.17232893 231.53650376 231.67799185 231.53526306 233.18365479 C231.53433741 234.2946233 231.53433741 234.2946233 231.53339306 235.42803562 C231.52995205 240.62536562 231.53574142 245.8226375 231.54518127 251.0199585 C231.55644694 257.36137817 231.55326599 263.70260002 231.5320583 270.04399729 C231.52160869 273.27410182 231.51950585 276.50381283 231.53065491 279.73392487 C231.59225017 299.39860321 230.55237076 313.78645034 216.625 328.8125 C210.02796279 335.11170257 202.90734273 338.10573553 193.875 338.3125 C192.82054687 338.34988281 191.76609375 338.38726562 190.6796875 338.42578125 C181.77151685 337.39500567 175.10976874 333.07460095 168.3125 327.5 C167.53849854 326.8819751 166.76449707 326.2639502 165.96704102 325.62719727 C163.63563147 323.76240429 161.31713474 321.88248267 159 320 C157.08701105 318.46169624 155.17126723 316.92689256 153.25488281 315.39282227 C152.03948309 314.41955551 150.82529609 313.44477248 149.61230469 312.46850586 C144.98705661 308.75516609 140.28728441 305.14798228 135.5625 301.5625 C129.27537047 296.79003272 123.12157939 291.88171753 117.01977539 286.87524414 C112.2548771 282.98083924 107.4046361 279.21644557 102.5 275.5 C96.23153715 270.75012651 90.0992296 265.86347044 84.01953125 260.875 C79.25467007 256.98073232 74.40454482 253.2163764 69.5 249.5 C63.23903657 244.75580913 57.11325988 239.87592907 51.04150391 234.89257812 C45.37889699 230.26374414 39.59298855 225.80907068 33.7578125 221.40039062 C33.09265625 220.89701172 32.4275 220.39363281 31.7421875 219.875 C30.87376221 219.22144531 30.87376221 219.22144531 29.98779297 218.5546875 C27.27276163 216.4312142 24.64506561 214.21007382 22 212 C21.99635437 213.09865891 21.99270874 214.19731781 21.98895264 215.32926941 C21.95186368 225.72970812 21.89394031 236.12985454 21.81609726 246.5300703 C21.77674264 251.87577147 21.74449549 257.22131087 21.72900391 262.56713867 C21.71375787 267.73504564 21.67917262 272.90250749 21.63169098 278.07021523 C21.6169587 280.03272932 21.60896372 281.995307 21.60811615 283.95787621 C21.59257833 301.91090547 19.27445586 315.16517523 6.625 328.8125 C0.02796279 335.11170257 -7.09265727 338.10573553 -16.125 338.3125 C-17.17945313 338.34988281 -18.23390625 338.38726562 -19.3203125 338.42578125 C-28.22832443 337.39502403 -34.89046394 333.07476204 -41.6875 327.5 C-42.45932617 326.88342529 -43.23115234 326.26685059 -44.02636719 325.6315918 C-46.35948096 323.76476515 -48.67987833 321.88293175 -51 320 C-52.33341305 318.93206572 -53.66798117 317.86557145 -55.00390625 316.80078125 C-57.47900402 314.82753045 -59.9502321 312.84963565 -62.41796875 310.8671875 C-67.668041 306.65629599 -72.96808021 302.50913717 -78.26611328 298.35888672 C-81.17966827 296.07546697 -84.08964193 293.78749197 -87 291.5 C-88.16664973 290.58331177 -89.33331639 289.6666451 -90.5 288.75 C-102.16666667 279.58333333 -113.83333333 270.41666667 -125.5 261.25 C-126.07741943 260.79633057 -126.65483887 260.34266113 -127.24975586 259.87524414 C-128.4173041 258.95784991 -129.58478449 258.04036933 -130.75219727 257.12280273 C-133.6548279 254.84155755 -136.55859274 252.56178786 -139.46484375 250.28515625 C-145.44253893 245.59963993 -151.39456149 240.88580839 -157.3125 236.125 C-162.68316106 231.80458594 -168.13089195 227.59949778 -173.625 223.4375 C-206.5773349 198.41958803 -206.5773349 198.41958803 -211 178 C-212.4490549 159.30819117 -209.80952183 144.10889481 -197.40356445 129.49511719 C-195.02467475 126.96105552 -192.32997427 124.90292589 -189.5625 122.8125 C-188.31366685 121.85043594 -187.06497283 120.88819125 -185.81640625 119.92578125 C-184.86531982 119.1980249 -184.86531982 119.1980249 -183.89501953 118.45556641 C-180.9098377 116.16264524 -177.95599372 113.83034245 -175 111.5 C-173.83349732 110.58312466 -172.66683025 109.66645843 -171.5 108.75 C-170.63375 108.069375 -170.63375 108.069375 -169.75 107.375 C-122.5 70.25 -122.5 70.25 -120.75024414 68.87524414 C-119.5826959 67.95784991 -118.41521551 67.04036933 -117.24780273 66.12280273 C-114.3451721 63.84155755 -111.44140726 61.56178786 -108.53515625 59.28515625 C-103.18304902 55.08999658 -97.84357675 50.8817142 -92.54492188 46.61914062 C-86.61328649 41.84763582 -80.62665005 37.16460272 -74.5625 32.5625 C-68.95653692 28.30707305 -63.44281624 23.96207413 -58 19.5 C-19.61933025 -11.81618753 -19.61933025 -11.81618753 0 0 Z " fill="#000000" transform="translate(246,89)"/>
</svg>
