<?xml version="1.0" encoding="UTF-8"?>
<!DOCTYPE svg PUBLIC "-//W3C//DTD SVG 1.1//EN" "http://www.w3.org/Graphics/SVG/1.1/DTD/svg11.dtd">
<svg xmlns="http://www.w3.org/2000/svg" version="1.1" width="512px" height="512px" style="shape-rendering:geometricPrecision; text-rendering:geometricPrecision; image-rendering:optimizeQuality; fill-rule:evenodd; clip-rule:evenodd" xmlns:xlink="http://www.w3.org/1999/xlink">
<g><path style="opacity:0.984" fill="#2c3e50" d="M 511.5,357.5 C 511.5,362.833 511.5,368.167 511.5,373.5C 504.454,394.537 489.788,403.703 467.5,401C 463.271,399.885 459.271,398.219 455.5,396C 388.68,330.014 322.014,263.847 255.5,197.5C 188.986,263.847 122.32,330.014 55.5,396C 36.7657,405.639 20.2657,402.806 6,387.5C 2.97481,383.123 0.80814,378.456 -0.5,373.5C -0.5,368.167 -0.5,362.833 -0.5,357.5C 1.21085,352.237 3.71085,347.237 7,342.5C 82.1667,267.333 157.333,192.167 232.5,117C 247.833,107 263.167,107 278.5,117C 353.667,192.167 428.833,267.333 504,342.5C 507.079,347.324 509.579,352.324 511.5,357.5 Z"/></g>
</svg>
