<?xml version="1.0" encoding="UTF-8"?>
<svg version="1.1" xmlns="http://www.w3.org/2000/svg" width="512" height="512">
<path d="M0 0 C2.2875126 1.67622772 4.33571577 3.43396816 6.38671875 5.390625 C7.010625 5.97457031 7.63453125 6.55851562 8.27734375 7.16015625 C15.64320215 14.76620569 20.49618101 25.32633772 20.52093983 35.96759796 C20.52539767 36.86128539 20.52985551 37.75497281 20.53444844 38.67574167 C20.5341719 40.13471817 20.5341719 40.13471817 20.53388977 41.62316895 C20.53756646 42.66365812 20.54124315 43.70414729 20.54503125 44.77616644 C20.55605782 48.26810033 20.55991023 51.76000444 20.5637207 55.25195312 C20.56998619 57.75373428 20.57663306 60.2555145 20.58363342 62.7572937 C20.6028518 70.26887078 20.61346086 77.78043995 20.62236121 85.29203439 C20.62674935 88.8338252 20.63211484 92.37561453 20.63735008 95.91740417 C20.65436032 107.69909606 20.66885261 119.48078704 20.67609882 131.26248932 C20.67800856 134.31789654 20.67992892 137.37330375 20.68188477 140.42871094 C20.68236851 141.18807078 20.68285225 141.94743061 20.68335065 142.72980136 C20.69164396 155.02008115 20.71696995 167.3102634 20.74946544 179.60050064 C20.78259249 192.23313228 20.80055272 204.86571444 20.80374306 217.49838972 C20.80590307 224.58525615 20.81457658 231.67198037 20.84020424 238.75880432 C20.86427479 245.43026018 20.86770164 252.10141675 20.85744286 258.77292252 C20.85694836 261.21533687 20.86324313 263.65776396 20.8769989 266.10013962 C20.97326803 284.21328009 20.38260989 298.78158008 7.28515625 312.609375 C-2.12661679 321.52229081 -12.90066783 325.74466625 -25.80078125 325.765625 C-26.57486328 325.79011719 -27.34894531 325.81460937 -28.14648438 325.83984375 C-39.61904897 325.89621999 -49.16319029 320.92502833 -58.73828125 315.078125 C-60.8471516 313.81946657 -62.95654489 312.56168401 -65.06640625 311.3046875 C-66.68385742 310.33450684 -66.68385742 310.33450684 -68.33398438 309.34472656 C-73.68521919 306.15597705 -79.087213 303.05645618 -84.48828125 299.953125 C-86.67068275 298.69550308 -88.8529739 297.43768965 -91.03515625 296.1796875 C-93.22782175 294.91659231 -95.42053014 293.65357156 -97.61328125 292.390625 C-111.28000595 284.51907822 -124.93536096 276.62975866 -138.55273438 268.6730957 C-146.10183163 264.2650956 -153.66610438 259.88385189 -161.23828125 255.515625 C-162.26824219 254.92136719 -163.29820312 254.32710938 -164.359375 253.71484375 C-166.40573866 252.53536071 -168.46228487 251.37338754 -170.52807617 250.22827148 C-173.61328125 248.390625 -173.61328125 248.390625 -176.41137695 246.19555664 C-188.21314678 237.66179435 -202.50899875 239.36771755 -216.44110107 239.5526123 C-221.99388926 239.61976305 -227.54686548 239.62158934 -233.09997749 239.61593056 C-235.00677432 239.62090752 -236.91346853 239.64889734 -238.8200531 239.67778015 C-261.24572368 239.79089459 -281.75008884 231.93842333 -297.86328125 216.1953125 C-310.9694366 202.82852337 -320.78424434 184.45847401 -321.61328125 165.390625 C-321.66484375 164.3903125 -321.71640625 163.39 -321.76953125 162.359375 C-322.39002368 139.40115522 -314.71023205 118.65464428 -299.08105469 101.74291992 C-285.03073706 87.2591552 -265.65516486 78.75628901 -245.61328125 77.390625 C-241.07833086 77.34709981 -236.54933778 77.46648559 -232.015625 77.56640625 C-228.63246563 77.59857367 -225.24944854 77.62351454 -221.86620235 77.64271259 C-218.3819147 77.66635763 -214.90156427 77.71439217 -211.41870117 77.8190918 C-192.00330452 78.37652182 -178.21563918 75.54039402 -162.0062561 64.06253052 C-158.93260798 61.91505736 -155.77108261 60.09379103 -152.49609375 58.26953125 C-151.53429199 57.71515381 -150.57249023 57.16077637 -149.58154297 56.58959961 C-148.6432666 56.04956299 -147.70499023 55.50952637 -146.73828125 54.953125 C-145.67496582 54.34025635 -144.61165039 53.7273877 -143.51611328 53.09594727 C-139.11869751 50.56141089 -134.72045204 48.02831595 -130.32226562 45.49511719 C-117.75588067 38.25619252 -105.20273211 30.99618787 -92.68261719 23.67749023 C-87.35794724 20.56732287 -82.02635601 17.46961145 -76.68359375 14.390625 C-76.10244812 14.05571045 -75.52130249 13.7207959 -74.92254639 13.37573242 C-72.12116942 11.76188614 -69.31887337 10.14965611 -66.515625 8.5390625 C-61.71101693 5.77443378 -56.92948947 2.98537417 -52.1953125 0.1015625 C-36.14867613 -9.53923101 -16.09497918 -9.91200512 0 0 Z " fill="#2c3e50" transform="translate(327.61328125,96.609375)"/>
<path d="M0 0 C2.5 2.0625 2.5 2.0625 5 5 C5.54785156 5.49886719 6.09570312 5.99773437 6.66015625 6.51171875 C18.40603265 17.24460375 26.59221025 31.60170742 33 46 C33.54269531 47.19882813 34.08539063 48.39765625 34.64453125 49.6328125 C50.39720914 86.56187509 49.48840443 128.16789463 34.640625 165.23754883 C28.17266303 180.46738735 18.99821221 193.73408108 8 206 C7.12797213 207.07762134 6.25816308 208.15704212 5.390625 209.23828125 C2.47594488 212.60540354 0.2598722 213.75141677 -4 215 C-8.36463257 215 -10.3583369 214.47427272 -13.875 211.875 C-16.43487892 208.41163441 -16.92349033 206.28454152 -17 202 C-15.76509189 197.95907033 -13.92136176 195.57254596 -11 192.5625 C2.7434018 177.64991635 12.25752208 160.40784833 18 141 C18.21172852 140.3002002 18.42345703 139.60040039 18.64160156 138.87939453 C24.71397877 117.9340237 24.30378662 93.83511818 18 73 C17.78569336 72.27570801 17.57138672 71.55141602 17.35058594 70.80517578 C11.68833422 52.17414228 2.25406363 36.45171084 -11.01953125 22.19140625 C-14.98206735 17.80682488 -16.79338605 15.09511145 -17 9 C-15.79689673 4.75375315 -14.86963036 2.64716678 -11.3125 0 C-7.18683575 -1.24548355 -4.10019744 -1.3781457 0 0 Z " fill="#2c3e50" transform="translate(461,149)"/>
<path d="M0 0 C13.64266859 6.59645514 22.85138002 26.31890819 28 40 C36.48758834 66.36231476 34.6218065 94.04138351 22.19897461 118.80664062 C18.52571555 125.86412123 14.21604189 131.97306084 9 138 C8.30777344 138.87785156 7.61554688 139.75570312 6.90234375 140.66015625 C4.26638551 143.90233076 2.0713475 145.69061841 -2.14453125 146.3203125 C-6.26904713 146.5255123 -8.43018953 146.35613155 -12 144.125 C-15.2139573 140.71017037 -15.52052574 138.0721773 -15.4765625 133.5 C-14.56563275 128.72135215 -11.15554129 125.53880541 -8 122 C5.53407395 105.88153002 10.86619635 86.12120023 9.81640625 65.37109375 C7.84510242 47.50742298 -0.3666929 32.84872949 -11.92578125 19.46875 C-14.8646896 15.97084025 -15.39300957 13.72181346 -15.359375 9.10546875 C-14.72418186 5.38406547 -12.66020984 3.59687151 -10 1 C-6.85575698 -0.57212151 -3.42208708 -0.5179375 0 0 Z " fill="#2c3e50" transform="translate(427,183)"/>
<path d="M0 0 C12.17058605 8.93254022 19.22557486 23.95014434 22.375 38.4375 C25.19438026 58.02783292 21.68581481 77.646025 9.765625 93.73828125 C8.89164062 94.85783203 8.89164062 94.85783203 8 96 C7.45859375 96.69480469 6.9171875 97.38960938 6.359375 98.10546875 C2.63439435 102.6676294 0.17349979 104.75460486 -5.875 105.4375 C-9.24564155 105.32409524 -10.31349629 104.82330209 -13.4375 103.0625 C-16.33422851 99.60055617 -16.84738791 97.64357312 -17.28515625 93.28125 C-16.67016383 88.36131066 -12.98398211 84.58549667 -10.0625 80.75 C-2.04261779 69.74289561 0.94042069 58.83580532 -0.46484375 45.203125 C-2.09764159 35.43017443 -6.50330153 27.85532661 -12.4609375 20.09765625 C-15.25773299 16.40362291 -16.89807088 13.68873967 -17 9 C-15.94960638 4.98940618 -14.14469805 2.66822865 -11 0 C-7.19730305 -1.26756565 -3.77843579 -1.25727285 0 0 Z " fill="#2c3e50" transform="translate(387,204)"/>
</svg>
